<?xml version="1.0" encoding="UTF-8"?>
<svg id="Layer_2" data-name="Layer 2" xmlns="http://www.w3.org/2000/svg" viewBox="0 0 473.7 462.95">
  <defs>
    <style>
      .cls-1, .cls-2, .cls-3, .cls-4, .cls-5, .cls-6, .cls-7, .cls-8, .cls-9, .cls-10, .cls-11, .cls-12, .cls-13 {
        stroke: #231f20;
        stroke-miterlimit: 10;
      }

      .cls-1, .cls-2, .cls-3, .cls-4, .cls-5, .cls-6, .cls-7, .cls-8, .cls-12 {
        stroke-width: 2px;
      }

      .cls-1, .cls-9, .cls-14 {
        fill: #fff;
      }

      .cls-2 {
        fill: #231f20;
      }

      .cls-3 {
        fill: #939598;
      }

      .cls-4 {
        fill: #594a42;
      }

      .cls-5, .cls-15 {
        fill: #8b5e3c;
      }

      .cls-6 {
        fill: #a7a9ac;
      }

      .cls-7 {
        fill: #c49a6c;
      }

      .cls-8 {
        fill: #f8dbc0;
      }

      .cls-10 {
        fill: #3c2415;
      }

      .cls-11 {
        fill: #603913;
      }

      .cls-12, .cls-13 {
        fill: none;
      }

      .cls-15, .cls-14 {
        stroke-width: 0px;
      }
    </style>
  </defs>
  <g id="Layer_1-2" data-name="Layer 1">
    <g>
      <path class="cls-5" d="m289.46,151.78c-1.88-15.77-3.76-31.56-4.63-47.42-.34-6.27-.53-12.55-1.07-18.81-.7-8.13-2-16.22-3.88-24.16,8.52-.75,17.11-.8,25.64-.16,1.77.13,3.76.42,4.79,1.87.68.97.75,2.22.98,3.38,1.4,6.99,8.73,10.74,14.31,15.18,7.52,5.98,12.82,14.97,13.46,24.56.37,5.59-.79,11.17-.97,16.77s.83,11.64,4.73,15.66c5.99,6.16,15.88,5.23,24.27,7.1,4.93,1.1,9.66,3.31,14.72,3.52,4.15.17,8.34-1.07,11.73-3.48,3.81,12.39,7.63,24.77,11.44,37.16,2.99,9.71,5.99,19.46,7.66,29.48,1.69,10.13,2.01,20.44,2.32,30.71-13.55-17.34-33.44-29.01-54.5-35.39-18.53-5.62-37.99-7.4-57.28-7.47-5.65-.02-7.14,1.28-8.45-4.21-1.13-4.75-1.2-10.08-1.78-14.94-1.17-9.78-2.33-19.56-3.5-29.34Z"/>
      <path class="cls-1" d="m296.79,196.1c-.49-2.14.19-4.28-.19-6.37-.33-1.85-.5-3.72-.79-5.59-2-13.08-3.86-26.18-5.58-39.3-3.39-25.88-6.22-51.83-8.49-77.83-.15-1.74-.33-3.55-1.27-5.02-.4-.63-.9-1.13-1.45-1.53-.27-.01-.52-.05-.77-.1-.55.21-1.17.33-1.87.33-.32,0-.61-.04-.89-.09-.64.32-1.4.51-2.28.51-.42,0-.8-.05-1.17-.13-.8.72-1.89,1.18-3.27,1.18-.55,0-1.03-.09-1.48-.22-.69.4-1.54.64-2.53.64-.95,0-1.75-.22-2.42-.58-4.69,1.54-9.38,3.07-14.07,4.61-.79,1.2-2.13,2.06-4.02,2.06-.02,0-.04,0-.06,0-.64,1.12-1.73,1.99-3.26,2.23-.28,5.97-.71,11.94-1.28,17.9-.41,4.22-.98,8.66-3.57,12.03-1.43,1.85-3.38,3.25-4.9,5.03-6.02,7.06-4.67,19.3-12.55,24.23-2.75,1.72-6.1,2.12-9.25,2.92-6.95,1.76-13.34,5.65-18.05,11.01-1.58,1.8-3.07,3.83-5.26,4.82-2.02.91-4.35.8-6.53.4-3.61-.66-7.17-2.12-9.71-4.74-2.55-2.62-3.91-6.52-2.9-10.02-5.11,8.73-6.42,19.11-6.96,29.19-1.77,33.3,4.15,67.62,21.23,96.33,3.57-5.06,3.03-11.91,5.47-17.59,1.63-3.81,4.54-6.93,7.59-9.76,13.35-12.38,30.3-20.46,47.89-25.33,12.15-3.36,24.69-4.94,37.2-6.3,2.62-.29,5.16-.63,7.79-.53,2.85.1,5.71,0,8.54-.29.46-.05.97-.12,1.28-.46.23-.25.31-.61.33-.95.05-.91-.28-1.79-.49-2.67Z"/>
      <g>
        <path class="cls-12" d="m235.6,423.43c5.95-23.38,13.95-48.38,35.34-62.12"/>
        <path class="cls-12" d="m152.79,441.82c2.75,4.22,5.75,9.22,10.75,11.22,19,5,37,3,55.54-.13"/>
        <path class="cls-12" d="m144,373.11c-1.82,12.79-1.42,25.62.99,38.29"/>
        <path class="cls-12" d="m74.22,314.99c2.05-1.05,4.48-1.05,6.73-1.05-1.02,13.98-1.47,28-1.72,42.01-1.68,27.09-5.68,69.09,27.32,77.09,16,4,35-9,36.2-26.01"/>
        <path class="cls-12" d="m28.47,185.69c-9.29,8.19-14.34,19.89-18.86,31.14-5.14,12.8-9.12,26.44-8.56,40.36.88,21.91,14.47,42.85,34.89,51.33,14.18,5.89,29.91,6.17,45.01,5.42-1.71,1.7-4.44,1.42-6.47.53,2.07-.71,4.31-.68,6.47-.53-.12,1.63-.43,3.26-1.23,4.71"/>
        <path class="cls-12" d="m78.32,173.43c-4.98-13.91-12.77-26.61-21.23-38.64,1.74,2.21,3.54,4.39,5.14,6.71-1.87-2.11-3.58-4.36-5.14-6.71,8.94,12.69,2.35,29.02-8.54,38.12"/>
        <path class="cls-12" d="m19,245.82c2.59-11.56,18.33-7.49,26.93-8.08,10.5-.72,21.65-3.21,28.98-11.35"/>
        <path class="cls-12" d="m106.47,231.97c-8.88,9.5-14.76,21-21.39,32.05-5.63,9.38-13.38,17.81-24.7,19.53-7.26,1.1-14.9-.02-21.49-3.29"/>
        <path class="cls-12" d="m158.13,188.05c.82-.59,1.7-1.1,2.61-1.54"/>
        <path class="cls-12" d="m157.15,187.75c1.09-.75,2.35-1.2,3.63-1.52"/>
        <path class="cls-12" d="m161.11,187.15c-.94.59-2.02.9-3.13.95"/>
        <path class="cls-12" d="m400.67,117.48c-1.52-.21-3.04-.49-4.54-.81,10.11-4.34,16.87-13.06,20.47-23.26,3.94-14.37,5.94-29.37,4.94-44.37-1-6-3-12-7-17-7-6-16-5-24-3-3,0-6,1-7,5-2,12-4,24-13,33-13,13-32,9-45-1-14-4-29-7-44-6-21,2-40,9-60,15-8,3-16,0-23-3-12-6-13-21-11.54-32.6-.32.43-.59.81-.82,1.3.39-.33.59-.86.82-1.3-.72-.3-5.95-2.51-5.51-.41.3,1.42,4.57.59,5.51.41-11.44-3.48-27.4-5.29-35.39,5.79-10,13.86-6.97,34.97-.2,49.43,4.11,8.79,10.12,16.79,17.78,22.79-1.39-.46-2.56-1.44-3.43-2.61,1.24.74,2.35,1.66,3.43,2.61-1.59.58-6.05,2.76-7.32.7-.88-1.42.56-2.24,1.81-2.49,1.92-.38,3.94.83,5.51,1.78-12.05,5.32-24.33,10.1-36.57,14.93-11.08,4.66-24.08,7.66-32.08,17.66-6,8-7,20-1,29,15,19,42,14,61.64,7.21"/>
        <path class="cls-12" d="m400.61,117.79c-1.5-.35-2.99-.73-4.47-1.13,2.39-.91,4.83-1.68,7.33-2.25"/>
        <path class="cls-12" d="m415.13,248.47c.46-22.04-4.69-43.66-10.08-64.87,1.19,1.5,1.59,3.43,1.57,5.31-.79-1.68-1.19-3.5-1.57-5.31,1.89.6,12.6,6.7,8.05,8.15-4.13,1.31-7.66-4.92-8.05-8.15,3,1.12,6.29,1.83,8.77,3.98-3.13-.09-6.91-1.3-8.77-3.98,14.87,6.53,34.78,12.16,50.5,5.37,7.99-3.45,14.24-11.18,15.34-19.93,1.72-13.69-8.75-23.57-19.07-30.56-12.07-8.18-25.89-13.32-39.79-17.44-1.97.28-4.12-.35-5.97-1.1s-3.57-1.59-5.49-2.11c-1.48-.39-2.96-.78-4.44-1.17,1.62-.14,3.23.28,4.76.78"/>
        <path class="cls-12" d="m256.68,383.03c2.86,21.02-1.14,41.02,3.86,62.02,1,4,4,7,8,9,27,11,57,11,83-3,3-11,3-23,4-34,1-25,0-51-2.34-76.17"/>
        <path class="cls-12" d="m143.07,374.02c3.9-2.21,11.93-6.63,9.15-12.19-2.37-4.73-8.27-8.18-12.43-11.16-7.75-5.55-18.33-14.26-14.95-25.21"/>
        <ellipse class="cls-8" cx="300.64" cy="261.5" rx="118.43" ry="60.47"/>
        <path class="cls-12" d="m352.74,340.73c-2.83-8.09-7.62-15.49-13.84-21.39"/>
        <circle class="cls-2" cx="338.9" cy="263.36" r="8.58"/>
        <circle class="cls-2" cx="265.26" cy="263.36" r="8.58"/>
        <path class="cls-12" d="m182.93,265.05c-19.39-35-27.39-74-19.39-115,6-26,15-47,31-68,3-4,7-7,12.35-8.1"/>
        <path class="cls-12" d="m405.96,191.53c.49-9.83-5.16-18.76-8.22-28.11-6.12-18.64-2.22-40.24-12.06-57.21-3.48-6-8.47-10.98-13.68-15.55-6.65-5.84-13.76-11.16-21.24-15.89"/>
        <path class="cls-4" d="m389.44,119.02c15.47-2.96,27.86-15.12,32.91-29.17s3.52-29.63-1.53-43.68-13.43-26.82-22.15-39.18c-5.01,7.59-10.03,15.18-15.04,22.77-10.97,16.61-22.17,33.47-37.81,46.36"/>
        <path class="cls-4" d="m173.79,119.02c-15.48-3.1-27.88-15.81-32.93-30.51s-3.52-30.99,1.53-45.69c5.06-14.7,13.44-28.05,22.17-40.99,5.02,7.94,10.03,15.88,15.05,23.82,10.98,17.37,22.18,35.02,37.83,48.5"/>
        <path class="cls-6" d="m439.28,177.08c-1.75-5.23-9.35-7.06-10.36-12.48-.92-4.97,4.34-8.88,5.56-13.79.98-3.95-.77-8.02-2.48-11.72-2.18-4.71-4.36-9.42-6.54-14.12,12.37,3.35,25.16,6.91,34.95,15.17s15.66,22.65,10.19,34.23c-3.01,6.39-9.03,11.02-15.62,13.55-6.53,2.5-18.97,5.39-25.22,2.19,3.32-4.29,12.13-5.26,9.52-13.03Z"/>
        <path class="cls-3" d="m141.34,177.57c.05-.72.18-1.51-.21-2.12-.37-.57-1.08-.8-1.74-.98-3.71-1.03-7.41-2.06-11.12-3.09-1.04-.29-2.18-.65-2.77-1.55-.46-.7-.49-1.59-.5-2.42-.06-2.98-.11-5.96-.17-8.94-3.83-2.06-7.11-5.11-9.44-8.78-.94-1.48-1.75-3.09-3.07-4.25s-3.33-1.76-4.84-.86c-1.19.71-1.74,2.12-2.67,3.14-1.55,1.68-4,2.15-5.92,3.41-2.62,1.72-4.05,4.87-4.32,8s.47,6.25,1.42,9.24c2.03,6.4,5.19,12.67,10.35,16.98,8.09,6.75,19.48,7.52,30.01,7.5,6.7-.01,6.54-2.52,9.06-7.69-2.48-1.67-4.29-4.5-4.08-7.58Z"/>
        <path class="cls-3" d="m394.85,133.43c-2.54-17.27-11.94-33.56-25.95-43.51-5.36-3.81-11.39-6.81-15.79-11.77-2.4-2.71-4.26-5.95-7.03-8.25-6.66-5.54-16.27-4.21-24.81-5.53-.19.02-.37.03-.56.03-2.67-.05-5.34.29-8.01,0-.55-.06-1.05-.19-1.54-.36-.05,5.84,4.4,11.46,9.26,15.05,5.74,4.24,12.61,7.51,16.17,13.8,4.22,7.45,2.52,16.77,1.87,25.37-.65,8.61.85,18.9,8.3,22.82,3.35,1.76,7.26,1.82,11.01,2.06,16.25,1.04,41.04,17.27,37.07-9.72Z"/>
        <path class="cls-3" d="m181.62,150.02c6.95,1,10.89-7.52,16.46-11.81,7.09-5.45,18.48-4.52,23.61-11.84,4.05-5.78,2.42-14.65,7.59-19.46,2.06-1.92,4.95-2.87,6.74-5.05,1.85-2.27,2.14-5.39,2.35-8.31.53-7.49,1.07-14.98,1.6-22.46-5.87,2.85-12.29,4.56-18.8,5-3.17.22-6.44.15-9.43,1.24-2.24.82-4.19,2.24-6.07,3.7-12.46,9.69-63.11,63.33-24.05,68.97Z"/>
        <ellipse class="cls-2" cx="318.57" cy="154.64" rx="9.41" ry="17.65"/>
        <ellipse class="cls-2" cx="256.68" cy="158.25" rx="9.41" ry="17.65"/>
        <line class="cls-12" x1="306.52" y1="138.22" x2="323.58" y2="116.64"/>
        <line class="cls-12" x1="273.84" y1="144.14" x2="244.4" y2="124.97"/>
        <path class="cls-3" d="m232.83,394.74c-3.69,3.08-6.71,7-10.84,9.47-6.38,3.82-14.42,3.58-21.7,2.06-7.28-1.52-14.35-4.19-21.77-4.85-3.37-.3-6.95-.13-9.86,1.59-2.19,1.3-3.82,3.36-5.92,4.79-4.57,3.1-10.56,2.76-16.07,2.38-.43-.03-.86-.04-1.29,0-.02.49-.09.97-.23,1.43.06.32.08.65.08.97.25.59.38,1.24.42,1.89.2.58.3,1.21.3,1.83.06.25.1.5.12.75.13.14.26.28.38.4,7.42,7.42,2.42,20.97,8.06,29.83,4.91,7.72,15.58,8.75,24.73,8.96,14.95.35,39.25,3.59,48.78-10.83,3.21-4.86,16-55.12,18.06-54.35-4.5-1.68-9.56.61-13.25,3.69Z"/>
        <path class="cls-6" d="m355.93,426.79c-13.64.2-25.18-12.02-27.87-25.39s1.72-27.23,8.15-39.26c4.42-8.26,10.01-16.2,17.89-21.27"/>
        <path class="cls-3" d="m190.12,283.9c-4.15-5.8-6.88-12.47-9.58-19.07-.53-1.28-1.05-2.57-1.58-3.85-3.33-8.15-6.67-16.32-10.61-24.2-.86-1.71-1.95-3.59-3.81-4.05-1.28-.32-2.61.13-3.85.57-3.26,1.15-6.85,2.61-8.25,5.76-.52,1.17-.68,2.47-.82,3.75-2.22,19.38-3.82,39.35,1.5,58.12,1.1,3.89,2.57,7.82,5.32,10.78,4.76,5.12,12.59,6.37,19.43,4.91,6.83-1.45,12.93-5.19,18.88-8.86,17.76-10.97,1.24-12.87-6.63-23.87Z"/>
        <path class="cls-7" d="m17.54,227.72c-.75-2.45-2.5-4.44-3.72-6.69-5.17-9.57.13-21.21,5.37-30.75,1.16-2.12,2.46-4.36,4.63-5.41,1.48-.71,3.17-.77,4.8-.95,13.47-1.52,24.53-12.94,28.09-26.02,3.56-13.08.56-27.28-5.66-39.33,3.64,6.1,9.24,10.76,13.67,16.31,12.56,15.73,14.85,37.05,16.64,57.09,1.74,19.41-1.55,38.91-23.07,45.14-12.69,3.68-36.71,3.85-40.76-9.41Z"/>
        <path class="cls-6" d="m81.53,314.74c13.65.64,24.55,12.21,26.52,24.28s-3.18,24.14-10.25,34.46c-4.86,7.09-10.88,13.82-19.03,17.86"/>
        <path class="cls-12" d="m142.94,404.66v2.8c-.05-1.56-.43-1.3,0-2.8Z"/>
      </g>
      <path class="cls-1" d="m143.82,190.09c.09-1.18.84-2.22,1.01-3.4.15-1.01-.15-2.03-.44-3.01-.68-2.3-1.37-4.61-2.05-6.91-.3-1-.61-2.03-1.32-2.79-1-1.06-2.54-1.36-3.98-1.6-1.89-.32-3.77-.64-5.66-.95-1.42-.24-2.92-.52-3.97-1.51-2.31-2.18-.98-6.03-1.69-9.13-.54-2.37-2.31-4.24-4-5.98-4.03-4.15-8.05-8.3-12.08-12.46,1.56-1.59,4.18-.97,6.39-1.31,2.69-.41,4.85-2.33,7.16-3.79,3.8-2.41,8.22-3.61,12.46-5.12,11.48-4.09,22.18-10.6,34.15-12.89.32-.06.69-.11.94.09.22.18.28.48.3.76.15,2.01-.97,3.87-1.91,5.66-1.82,3.47-3.06,7.2-4.14,10.96-3.12,10.84-4.97,22.05-5.53,33.32-.14,2.79-.19,5.59-.17,8.39.02,1.88,1.11,6.66.23,8.25s-5.29,1.56-7.02,1.87l-8.68,1.53Z"/>
      <path class="cls-9" d="m167.5,224.45c-1.67-5.61-3.33-11.23-5-16.84-.4-1.34-.95-2.85-2.25-3.34-.97-.37-2.04-.05-3.03.27l-15.76,5.15c-7.61,2.48-15.31,5.01-22.02,9.38-13.6,8.85-21.42,24-30.11,37.71-6.11,9.64-13.53,19.34-24.24,23.3-5.08,1.88-10.6,2.33-16.01,2.03-7.48-.41-15.03-2.28-21.21-6.52s-10.83-11.04-11.37-18.51,3.58-15.36,10.5-18.22c-.9-4.11-6.85-4.91-8.84-8.62-.71-1.33-.83-2.88-1.11-4.36-.83-4.32-3.27-8.31-6.73-11.02C1.35,224.56.78,239.12.71,252.33c-.04,7.58-.07,15.28,2.01,22.57,2.39,8.39,7.43,15.76,12.68,22.73,1.81,2.4,3.71,4.83,6.23,6.49,2.63,1.74,5.76,2.53,8.83,3.29,13.97,3.48,28.11,6.97,42.51,6.94,5.12-.01,10.31-.47,15.31.62,5.71,1.23,7.44,4.95,11.82,7.78.95.61,1.95,1,2.99,1.21.54-.2,1.14-.31,1.82-.31.84,0,1.57.17,2.19.47,2.12-.2,4.29-.74,6.36-1.19,11.21-2.41,21.83-7.63,30.5-15.14,3.24-2.81,6.31-6.06,7.72-10.12,1.54-4.44.92-9.3.43-13.97-1.36-13.03-1.54-26.19-.53-39.25.31-4.07,1.41-8.99,5.32-10.17,3.1-.94,6.86,1.02,9.52-.85,2.65-1.86,2.02-5.89,1.1-8.99Z"/>
      <path class="cls-14" d="m218.96,376.63c-1.01-4.56-.99-9.28-.96-13.95l.24-44c.03-4.76,0-9.74-2.23-13.94-2.23-4.2-7.43-7.24-11.82-5.4-3.35,8.64-12.04,14.33-21.08,16.4-6.35,1.45-13.23,1.33-19.12-1.43-5.9-2.76-10.61-8.45-11.17-14.94-4.17,1.84-6.98,5.75-10.08,9.09-10.53,11.33-26.69,17.15-42.03,15.14,1.37,3.26,2.74,6.52,4.11,9.79l19.08-10.64c.49,8.08,1.85,16.84,7.77,22.36,4.01,3.74,9.47,5.37,14.34,7.89,4.87,2.52,9.63,6.72,9.82,12.2.06,1.58-.33,3.25-1.46,4.36-1.99,1.97-5.3,1.45-7.9,2.49-1.24.49-2.27,1.35-3.08,2.39-.07.69-.27,1.35-.58,1.96,0,.02-.01.05-.02.07.84,1.57.84,3.61,0,5.18.35,1.2.3,2.53-.16,3.69.02.08.03.17.05.25.28.42.49.87.54,1.3.19,1.44.31,2.88.46,4.32.16.78.14,1.55-.07,2.33-.07.17-.14.34-.22.51.12.3.22.61.29.92.37,1.07.41,2.26.11,3.35.05.12.12.22.16.34.31.6.46,1.24.43,1.93v.6c0,.54-.11,1.05-.28,1.54.51.75.78,1.64.86,2.56.21.24.39.51.55.79.82.62,1.37,1.5,1.66,2.47.19.08.39.16.59.22,8.59,2.73,16.68-5.2,25.48-7.17,11.47-2.56,22.96,5.3,34.68,4.44,6.78-.5,12.97-3.88,18.92-7.18-1.63-7.7-6.17-14.53-7.87-22.22Z"/>
      <path class="cls-14" d="m195.83,311.59c1.97-.79,3.86-2.58,3.61-4.69-2.31,1.25-4.66,2.44-7.05,3.53-1.28.58-5.34,1.48-5.85,2.83-.97,2.55,1.75,1.15,2.67.67,2.13-1.12,4.41-1.44,6.62-2.33Z"/>
      <path class="cls-14" d="m149.03,372.14c-.37-.35-.32-.97-.05-1.4s.7-.72,1.09-1.04c2.51-2.04,3.45-5.8,2.19-8.79-1.79-4.24-6.89-5.95-9.87-9.45-.49-.57-.89-1.52-.3-2,.42-.34,1.03-.15,1.52.06,5.64,2.46,10.77,7.14,11.77,13.21.24,1.45.24,2.92.15,4.39-.1,1.62-.45,4.02-1.95,5.02-1,.67-3.66.82-4.55-.02Z"/>
      <path class="cls-14" d="m130.48,346.08c2.03-.17,3.47.88,4.77,2.27s3.13,1.22,4.85,2.01c.55.25,1.11.54,1.49,1.02.52.64.48,1.5.9,2.16,1.19,1.84,3.63,2.49,5.23,3.94s2.97,3.31,3.97,5.28c.37.73.5,1.64.14,2.38-.87,1.78-1.97,3.56-3.53,4.81-.82.65-1.76.83-2.61,1.33-1.01.6-1.88,1.77-2.61,2.69-.2.25-.39.51-.46.83-.14.66.32,1.27.67,1.84,1.06,1.78,1.08,3.97,1.08,6.04-.01,5.14-.03,10.29-.04,15.43,0,3.06-1.26,5.44-1.74,8.36s-.93,5.53-2.25,8.21c-.21.42-.43.84-.66,1.26-.64,1.13-1.36,2.21-2.14,3.24-.38.5-.77,1.01-1.2,1.47-.4.43-.57,1.1-.93,1.59-.23.32-.52.61-.85.83-.16.1-.37.15-.52.26-.14.1-.25.3-.36.44-.53.68-1.06,1.37-1.7,1.96-1.08.99-2.28,1.85-3.56,2.55-.75.41-1.56.56-2.28.99-.71.42-1.43.85-2.17,1.22-2.75,1.42-5.79,2.25-8.88,2.44-.69.04-1.14-.26-1.78.01-.84.36-1.73.7-2.64.62-.64-.06-1.25-.32-1.84-.58-.61-.27-1.26-.66-1.91-.83-.44-.12-.9-.09-1.35-.18-1.26-.25-2.52-.59-3.65-1.22-.32-.18-.6-.41-.95-.49-.46-.1-.82-.06-1.26-.32-.99-.59-1.91-1.36-2.85-2.02-1.23-.86-2.57-1.53-3.82-2.37-9.94-6.66-12.07-19.22-13.35-30.21-.21-1.76-.73-3.93.14-5.58.42.51,1.13.71,1.8.67s1.29-.3,1.91-.55c.36-.15.73-.3,1-.57-.45.28-.98.43-1.51.43,3.21-1.95,6.02-4.56,8.21-7.61,1.02-1.42,1.9-2.93,2.93-4.33.95-1.29,2.01-2.48,3.02-3.73,1.06-1.3,2.05-2.65,2.97-4.04.46-.69.72-1.09.83-1.85.1-.67.1-1.23.5-1.83.64-.95,1.29-1.41,1.6-2.54.42-1.52,1.01-3.01,1.49-4.52,1.86-5.89,3.39-11.94,3.79-18.12.22-3.48-.03-7.27-2.26-9.94-.99-1.18-2.3-2.05-3.34-3.18-.66-.72-2.34-3.13-1.18-4.01.58-.44,4.69.61,5.68.58,4.23-.16,8.3-1.66,12.47-2.25.88-.13,1.94-.14,2.49.56.47.62.32,1.49.2,2.26-.81,5.11.87,9.63,3.56,13.65,1.74,2.6,3.9,4.98,6.09,7.18,1,1.01,2.18,2.36,3.48,2.94.14.06.29.12.44.18"/>
      <path class="cls-12" d="m145.63,410.13c-3.31-6.08-5.46-12.78-6.33-19.65-.66-5.26-.41-11.08,2.92-15.2,3.25-4.02,9.37-6.65,9.29-11.82-.04-3.12-2.58-5.68-5.34-7.11s-5.88-2.08-8.67-3.48c-9.01-4.51-12.62-15.84-11.89-25.89"/>
      <path class="cls-14" d="m101.12,326.95c.59.49,1.36.68,2.12.82,2.98.56,6.08.45,9.02-.3,1.36-.35,2.68-.84,4.06-1.05,2.4-.36,4.84.12,7.26.08,5.49-.1,10.69-2.97,14.41-7.01s6.09-9.15,7.69-14.4c.25-.8.43-1.8-.17-2.38-.61-.59-1.6-.36-2.39-.05-2.89,1.14-5.5,2.91-8.3,4.26-8.02,3.87-17.1,4.12-25.53,6.64-3.44,1.03-4.8,1.89-6.47,4.91-1.18,2.14-4.37,6.29-1.71,8.49Z"/>
      <path class="cls-14" d="m211.07,401.54c-1.01.2-2.05.42-2.88,1.01s-1.41,1.68-1.09,2.66c.46,1.39,2.26,1.7,3.72,1.67,4.06-.1,8.09-1.03,11.78-2.72.53-.24,1.07-.51,1.45-.96.33-.38.51-.85.7-1.32.63-1.6,1.25-3.2,1.88-4.81.08-.2.16-.41.12-.61-.08-.44-.61-.64-1.06-.65-2.7-.08-5.2,2.57-7.47,3.74s-4.66,1.49-7.15,1.99Z"/>
      <path class="cls-14" d="m241.28,390.61c1.43-.35,2.94-.63,4.12-1.51,1.46-1.09,2.16-2.89,2.89-4.56,4.43-10.12,12.57-18.55,22.52-23.33.79,2.58-2.41,4.39-4.81,5.62-4.04,2.07-7.37,5.5-9.32,9.61-.72,1.53-1.26,3.32-.64,4.9.29.75.82,1.37,1.18,2.09.57,1.12.72,2.41.86,3.66.47,4.29.95,8.58,1.42,12.88.1.89.26,1.89,1.01,2.39.53.35,1.21.34,1.84.31,21.27-.81,42.52-2.48,63.66-5-2.08-11.94,2.62-23.92,7.54-35,1.88-4.22,3.84-8.49,6.93-11.93,2.75-3.07,6.25-5.33,9.47-7.9.69-.55,1.42-1.23,1.41-2.11-.05-3.16-2.59-6.32-3.91-9.07-1.9-3.97-4.95-7.23-7.93-10.41-.39-.42-.8-.85-1.34-1.07-.52-.21-1.1-.19-1.65-.15-2.01.15-3.84.8-5.79,1.17s-4.11.45-6.13.66c-4.26.46-8.52.87-12.78,1.21-8.52.67-17.07,1.02-25.62.83-4.01-.09-8.03-.3-12.02-.65-20.34-1.8-40.35-7.35-58.71-16.29.44,12.14-1.69,24.21-2.88,36.3-1.19,12.09-1.41,24.6,2.66,36.05,1.19,3.35,2.74,6.56,4.46,9.67,1.18,2.14,3.44,7.94,5.56,9.13s5.2-2.67,7.24-3.88c2.72-1.62,5.69-2.85,8.77-3.61Z"/>
      <path class="cls-14" d="m317.84,322.11c-1.4.19-2.83.65-4.32.69-11.83.32-23.5.43-35.25-1.12-1.72-.23-3.6-.16-5.23-.63-1.73-.49-3.36-.96-5.14-1.25-6.98-1.12-13.92-2.51-20.79-4.17-4.06-.98-8.1-2.06-12.09-3.31-6.04-1.89-11.97-4.16-17.73-6.79-.43-.2-.9-.4-1.37-.32,2.32,3.22,4.41,5.8,7.77,7.91,2.58,1.61,5.51,2.55,8.41,3.46,3.9,1.22,7.81,2.41,11.75,3.48,8.03,2.19,16.23,3.94,24.55,4.46,2.06.13,4.13.19,6.2.15,1.99-.03,3.3.75,5.17,1.41,3.68,1.3,7.56,2.03,11.46,2.13,3.44.09,6.88-.29,10.29-.77,4.86-.68,9.73-1.57,14.3-3.35,1.1-.43,2.26-.99,2.77-2.05-.24.01-.49.04-.73.07Z"/>
      <path class="cls-14" d="m339.27,354.79c.15-.29.31-.57.48-.84.35-.57,1.96-3.29,2.53-3.41-.18.04-.11.36.07.39s.35-.1.49-.23c1.58-1.51,2.93-3.25,4.01-5.16-.15-.79-1.33-.68-2.05-.31-4.05,2.06-7.28,5.41-10.36,8.75-3.82,4.15-7.56,8.41-10.65,13.13s-5.53,9.94-6.53,15.49c-.96,5.28-.58,10.79,1.08,15.9.31.94,4.33-1.56,4.69-1.85.46-.37,1.14-1.18,1.82-1.06.8.14.88,1.23,1.29,1.8.97-1.62.38-3.9.23-5.66-.32-3.83.64-7.64,1.69-11.34,1.27-4.47,2.32-9.53,4.72-13.5,1.68-2.77,3.26-5.6,4.76-8.48.37-.72.7-1.46,1.05-2.19.16-.35.31-.73.51-1.06s.48-.54.74-.82c1.01-1.08,1.88-2.29,2.57-3.6-.14-.08-.3.03-.42.13-.97.86-1.72,1.96-2.18,3.17"/>
      <path class="cls-14" d="m257.14,382.89c-.98.14-2.03-.14-2.73-.83s-.98-1.82-.59-2.72c.27-.63.81-1.1,1.33-1.55.81-.69,1.62-1.39,2.43-2.08,1.11,2.39.74,5.4-.92,7.45"/>
      <path class="cls-14" d="m258.81,392.42c-.31,17.35-.61,34.86,2.68,51.9.05.28.12.59.33.79.24.24.61.27.95.28,2.14.09,4.28-.04,6.41-.23,3.64-.32,7.29-.81,10.79-1.84,8.8-2.58,16.39-8.51,21.98-15.78,5.59-7.27,9.29-15.84,11.91-24.63,1.88-6.3,3.23-12.86,2.8-19.41-9.54-.67-19.09,1.18-28.65.97-3.6-.08-7.24-.45-10.79.14-6.58,1.1-12.31,5.83-15.04,11.86-.78,1.73-1.11,3.5-1.58,5.31-.66-.26-.69-3.57-.82-4.37-.27-1.67-.59-3.33-.97-4.98Z"/>
      <path class="cls-15" d="m268.19,452.93c1.45.75,3.01,1.24,4.56,1.73,2.25.7,4.5,1.39,6.75,2.07,3.2.97,6.42,1.92,9.75,2.21s6.79-.11,9.72-1.73c3.06-1.69,5.31-4.58,6.86-7.71s2.47-6.53,3.45-9.88c3.32-11.35,7.44-22.51,9.42-34.17.23-1.34.42-2.76-.06-4.04s-1.86-2.32-3.17-1.94c-.69.2-1.22.74-1.72,1.26-13.16,13.73-26.16,27.87-41.87,38.59-2,1.37-3.95,2.72-5.74,4.37s-2.57.66-4.81,1.18c.73,3.4,3.86,6.51,6.86,8.07Z"/>
      <path class="cls-14" d="m313.36,400.09c.86,1.4,3.19.7,4.49,1.7,1.25.95.97,2.88.55,4.39-3.79,13.78-8.31,27.35-13.1,40.81-1.24,3.49-2.75,7.27-6.01,9.02-3.14,1.69-7.2,1.05-10.22,2.96,19.15,3.86,39.05-.52,57.38-7.28.59-.22,1.2-.45,1.68-.86.45-.4.75-.93,1.02-1.47,2.78-5.54,2.9-11.99,2.96-18.18,0-.56,0-1.13-.21-1.64-.71-1.7-3.06-1.67-4.9-1.71-6.61-.17-12.26-5.03-15.8-10.61s-5.54-11.99-8.61-17.84c-1.06-2.02-3.09-2.98-5.37-3.11-1.68-.09-5.22,1.65-3.88,3.83Z"/>
      <path class="cls-14" d="m350.99,438.38c.34-.11.73.12.9.44s.18.7.19,1.06c.02,2.64-.16,5.29-.56,7.9-.14.93-.32,1.89-.89,2.63s-1.64,1.18-2.47.75c-.11-.06-.22-.13-.28-.25-.11-.21-.01-.46.1-.67.68-1.24,1.97-2.14,2.38-3.49.11-.37.15-.77.19-1.15.27-2.77,1.77-6.65-.89-8.34-2.07-1.31-4.38-2.25-6.4-3.64-3.09-2.14-5.95-4.6-8.55-7.32-5.15-5.4-9.24-11.83-11.87-18.83-1.33-3.55-3.36-8.44-1.08-12.04.72-1.13,2.33-1.8,3.45-1.07.43.28.73.72.96,1.17,1.28,2.42,1.12,5.31,1.75,7.97.59,2.49,1.88,4.76,3.14,6.98,1.46,2.57,2.95,5.16,5,7.28,4.24,4.37,10.36,6.23,15.63,9.28.7.4,1.41.86,1.8,1.56.2.35.31.74.36,1.14"/>
      <path class="cls-14" d="m353.07,428.83c-.25-.05-.41-.29-.53-.51-.1-.18-.21-.39-.13-.58.07-.18.27-.27.46-.27s.37.09.53.18c.26.14.54.36.54.65,0,.23-.18.43-.4.53s-.45.1-.69.11"/>
      <path class="cls-14" d="m351.06,438.5c-.03,1.14.08,2.28.18,3.42.09.97.18,1.93.27,2.9,0,.06.02.12.07.15s.11,0,.16-.04c.76-.53.99-1.54,1.09-2.46.35-2.95.11-5.96.62-8.9.08-.45.5-2.13-.17-2.36-.57-.2-1.02,1.56-1.17,1.96-.62,1.71-1.01,3.51-1.06,5.33Z"/>
      <path class="cls-14" d="m289.56,458.5c-.73-.36-1.64-.33-2.34.08.68.6,1.61.83,2.49,1.01,10.7,2.25,21.79,1.68,32.65.38,1.7-.2,3.58-.53,4.6-1.89.12-.16.22-.37.14-.54-.09-.19-.35-.21-.56-.21-10.86-.07-21.78,1.55-32.53.03-1.51-.21-3.02-.49-4.55-.52-.46-.01-.96.01-1.34.27s-.59.83-.31,1.2"/>
      <path class="cls-14" d="m325.06,459.09c.13.33.6.32.95.25,6.52-1.35,12.91-3.28,19.08-5.77,1-.4,2-.83,2.88-1.46.35-.25.7-.62.63-1.04-.07-.36-.44-.59-.8-.62s-.72.11-1.06.24c-3.04,1.17-6.12,2.25-9.22,3.23-1.55.49-3.11.96-4.68,1.4-1.42.4-3.16.58-4.48,1.21-.28.13-3.21,2.74-3.28,2.55Z"/>
      <path class="cls-1" d="m403.73,179c-1.31-3.09-1.61-6.51-2.57-9.73-.61-2.05-1.49-4.01-2.23-6.01-1.24-3.35-2.11-6.82-2.92-10.29-.93-3.99-1.8-8.16-.86-12.14.38-1.61,1.05-3.19.93-4.84-.1-1.33-.7-2.56-1.21-3.79-1.61-3.91-2.33-8.12-3.04-12.3-.11-.63-.15-1.4.37-1.76.24-.17.55-.19.85-.21,1.68-.12,3.37-.23,5.04-.04,1.59.18,3.14.64,4.68,1.1,7.37,2.18,14.73,4.36,22.1,6.54.4.12.81.24,1.12.51.3.26.48.62.65.97,2.58,5.26,5.17,10.55,6.72,16.2.81,2.95,1.32,6.16.25,9.04-1.4,3.77-5.35,6.58-5.45,10.6-.09,3.6,2.97,6.4,5.7,8.74s5.66,5.38,5.2,8.95c-.38,2.91-2.9,5.02-5.34,6.67-1.57,1.06-3.23,2.08-5.08,2.46-2.49.51-5.05-.16-7.5-.83-6.02-1.64-14.74-3.53-17.43-9.85Z"/>
      <path class="cls-5" d="m132.21,359.38c-2.83-1.67-5.07-4.4-8.22-5.36-1.26-.38-2.59-.46-3.83-.89-2.1-.72-3.81-2.5-4.45-4.63-.33-1.1-.4-2.27-.79-3.34-.91-2.48-3.34-3.99-5.44-5.59-7.19-5.47-11.98-14.44-11.16-23.43s7.97-17.4,16.94-18.44c9.11-1.05,17.31,4.91,25.19,9.59,4.65,2.76,9.6,5.22,13.33,9.12,3.84,4.02,6.1,9.27,7.86,14.54.61,1.83,1.18,3.71,2.3,5.28,1.77,2.48,4.65,3.86,7.2,5.52,4.37,2.83,7.42,7.99,2.88,12.2-3.69,3.42-8.94,2.23-13.43,2.08-9.97-.34-18.17,9.39-28.38,3.35Z"/>
      <path class="cls-10" d="m100.74,273.38c.9.78,2.22.73,3.41.64,3-.23,6-.45,9-.68.97-.07,1.95-.15,2.86-.49,1.31-.49,2.37-1.49,3.35-2.49,5.39-5.54,9.71-12.11,12.65-19.25.32-.77.62-1.66.25-2.41-.21-.44-.62-.75-.86-1.17-1.11-1.91,1.62-4.05,1.37-6.24-4.1-1.04-8.66-1.61-12.4.37-1.98,1.05-3.55,2.72-5.08,4.36-4.3,4.62-7.21,10.47-11.58,14.76-2.56,2.52-7.2,8.92-2.97,12.6Z"/>
      <path class="cls-10" d="m225.95,336.6c-1.2,0-2.48.01-3.47.68-1.05.71-1.53,1.98-1.94,3.18-1.43,4.18-2.62,8.99-.43,12.83,1.73,3.03,5.26,4.67,8.73,5.02s6.94-.42,10.35-1.17c4.56-1.01,9.11-2.03,13.67-3.04,2.06-.46,4.23-.91,6.25-.3,1.8.55,3.25,1.88,4.98,2.62,2.71,1.16,5.78.77,8.72.77s6.24.61,7.93,3.02c2.5,3.56.04,8.33-.42,12.65-.09.87-.08,1.81.37,2.56.56.92,1.64,1.35,2.65,1.69,5.25,1.8,10.73,2.95,16.26,3.43,1.4.12,2.89.18,4.11-.5.88-.49,1.53-1.31,2.15-2.11,8.7-11.2,17.4-22.4,26.09-33.6.83-1.07,1.7-2.23,1.81-3.59.26-3.36-4.18-5.14-7.46-4.39-4.54,1.04-8.23,4.69-12.85,5.27-4.26.53-8.32-1.65-12.28-3.32-8.77-3.69-18.52-5.05-27.96-3.89-4.63.57-9.35,1.73-13.91.72-3.62-.8-6.88-2.92-10.55-3.45-5.09-.73-5.17,2.67-8.34,4.48s-10.59.46-14.46.44Z"/>
      <path class="cls-11" d="m191,185.19c0,1.23.19,2.52.95,3.48.6.75,1.5,1.2,2.36,1.63,5.66,2.8,11.31,5.6,16.97,8.39.61.3,1.28.61,1.95.46.59-.13,1.04-.6,1.46-1.03,5.15-5.39,11.2-9.92,17.83-13.34,1.2-.62,2.63-1.56,2.44-2.9-.1-.68-.61-1.22-1.11-1.71-4.46-4.36-9.6-8.51-11.64-14.41-.56-1.62-1.15-3.63-2.82-4.02-1.3-.3-2.54.59-3.6,1.4-8.6,6.59-24.89,9.14-24.79,22.05Z"/>
      <path class="cls-13" d="m409.98,325.07v.4"/>
    </g>
  </g>
</svg>