<?xml version="1.0" encoding="UTF-8"?>
<svg id="Layer_2" data-name="Layer 2" xmlns="http://www.w3.org/2000/svg" viewBox="0 0 337.98 300.9">
  <defs>
    <style>
      .cls-1 {
        fill: #ed1c24;
      }

      .cls-1, .cls-2, .cls-3, .cls-4, .cls-5, .cls-6, .cls-7, .cls-8, .cls-9, .cls-10, .cls-11, .cls-12, .cls-13 {
        stroke: #231f20;
        stroke-miterlimit: 10;
        stroke-width: 2px;
      }

      .cls-2, .cls-14 {
        fill: #fff;
      }

      .cls-3 {
        fill: #f7941d;
      }

      .cls-4 {
        fill: #00aeef;
      }

      .cls-5 {
        fill: #ee2a7b;
      }

      .cls-6 {
        fill: #231f20;
      }

      .cls-7 {
        fill: #3c2415;
      }

      .cls-8 {
        fill: #8b5e3c;
      }

      .cls-9 {
        fill: #754c29;
      }

      .cls-10 {
        fill: #603913;
      }

      .cls-11 {
        fill: #a97c50;
      }

      .cls-12 {
        fill: #ddc398;
      }

      .cls-13 {
        fill: none;
      }

      .cls-15 {
        fill: #da1c5c;
      }

      .cls-15, .cls-14 {
        stroke-width: 0px;
      }
    </style>
  </defs>
  <g id="Layer_1-2" data-name="Layer 1">
    <g>
      <path class="cls-12" d="m119.22,117.88c-5.01-4.88-7.41-10.91-10.53-17.17"/>
      <path class="cls-12" d="m333.67,111.05c-13.1,1.69-25.49,8.11-34.17,17.72-2.04,2.25-4.55,4.94-7.6,4.39-1.96-.36-3.36-1.97-4.68-3.42-5.83-6.36-13.52-11.14-21.94-13.64-12.59-3.73-26.11-2.35-39.23-1.22-32.05,2.76-64.26,3.83-96.44,3.18-2.36-.05-6.76-1.84-8.73-1.48-2.53.47-10.54-17.57-12.19-15.87l-37.54,15.03c1.06,2.94-.44,6.91-4.5,6.91-.48,0-.91-.07-1.32-.18,2.65,12.26,6.68,24.18,7.94,36.73.03.25.03.5.02.73.08.13.15.25.23.38l15.4,25.29c.13.11.24.23.36.35,1.25.75,2.19,2.04,2.34,3.86,0,0,.01,0,.02.01,0-.29.14-.07.29.27.22.25.42.52.57.82.16.31.32.63.49.94.26.31.52.62.78.93,1.01,1.19,2.08,2.35,2.97,3.64,2.18,3.17,4.01,6.75,5.34,10.36.11.31.19.6.24.89,5.53,9.41,10.45,19.34,10.5,30.04.03,5.62-1.29,11.04-3.15,16.38.89.59,1.5,1.57,1.49,2.93-.11,9.85-2.57,19.23-7.96,27.64-1.13,1.76-3.01,2.06-4.58,1.51-.22,1.61-.35,3.23-.36,4.87,9.29.99,18.58,1.98,27.87,2.97,1.62.17,3.36.32,4.79-.44,2.91-1.56,2.64-5.56,2.44-8.76-.68-10.99,4.63-22.17,13.71-28.87-10.87-3.42-15.04-18.79-7.3-26.89,7.59,9.28,9.81,21.81,8.63,33.57s-5.43,23-9.64,34.1c9.68,2.3,23.16,3.41,32.86,1.15,5.53-1.29,6.68-8.27,6.67-13.75,0-16.11-.01-32.23-.02-48.34,0-2.65.03-5.42,1.27-7.78,3.2-6.07,11.96-6.22,19.01-5.82,7.05.39,16.04-.79,18.02-7.32,3.4,10.88,3.83,22.61,1.25,33.7-1.41,6.06-3.72,12.01-3.91,18.22-.19,6.21,2.35,13.04,8.12,15.82,3.9,1.88,8.51,1.58,12.85,1.24,4.76-.37,9.84-.91,14.14-2.7,2.86-18.03,4.89-36.09,4.94-54.42,0-1.71.71-2.95,1.75-3.76-.17-.57-.34-1.14-.51-1.7,4.98-1.75,10.47,2.39,12.05,7.26,1.58,4.87.44,10.12-.45,15.16-2.25,12.75-2.77,25.79-1.55,38.67.28,3.01.73,6.17,2.63,8.58,4.15,5.24,12.48,4.22,19.12,2.67,3.64-.85,7.28-1.69,10.92-2.54.06-13.5,1.55-26.96,1.61-40.47.01-2.5,2.11-3.7,4.12-3.6-.14-5.87-.29-11.73-.43-17.6-.12-5.05-.28-10.25-2.43-14.86-1.57-3.38-4.12-6.24-5.87-9.54-6.3-11.83-1.19-26.07,3.96-38.41.78-1.86,1.65-3.83,3.4-4.9,1.53-.94,3.45-1,5.26-1.07,5.05-.19,10.54-.95,15.34-2.7.88-6.44,3.14-12.7,7.16-17.87.23-2.93.84-5.84,2.02-8.73.33-.81.86-1.41,1.48-1.81-1.81-6.57-3.48-13.01.13-18.47Z"/>
      <path class="cls-11" d="m333.24,115.59c-7.22,5.75-5.69,17.54-11.36,24.85-1.07,1.38-2.36,2.52-3.78,3.46-1.37,5.65-7.15,9.6-13.65,10.68,0,0-.01,0-.02,0-1,1.3-2.01,2.61-2.98,3.93.36.58.71,1.17,1.04,1.77,6.86-.36,13.7-1.41,20.39-3.12.29-.41.67-.76,1.14-1.02,3.22-6.18,8.1-11.81,11.82-17.84.04-.89.37-1.76.99-2.42.04-.11.07-.23.13-.34-.94-6.71-2.17-13.38-3.71-19.97Z"/>
      <path class="cls-13" d="m127.93,125.23c1.34,6.59,5.01,13.11,9.69,17.22-2.64-1.7-5.55-2.04-7.81-.91,1.31,1.81,2.63,3.61,3.94,5.42-2.9-1.64-5.99-2-8.53-.98,1.95,2.57-.83,5.51-3.3,4.46-2.47-1.05-4.88-3.78-7.28-3.84"/>
      <path class="cls-13" d="m84.7,159.7c5.53-.07,11.05-.15,16.58-.22-2-2.03-3.99-4.06-5.99-6.1,2.89.5,6-.27,8.26-2.06-3.42-2-6.27-4.85-8.2-8.19"/>
      <path class="cls-8" d="m127.71,168.47c-.71-3.3-.89-6.71-.53-10.07.18-1.67.52-3.41,1.63-4.72,2.09-2.46,5.95-2.52,9.28-2.37,4.61.21,9.22.43,13.83.64,1.96.09,3.97.18,5.86-.32,1.47-.38,2.83-1.11,4.31-1.47,5.53-1.36,11.35,3.09,12.46,8.4,1.11,5.31-1.59,10.82-5.61,14.66s-9.22,6.33-14.33,8.75c-3.06,1.45-6.13,2.91-9.19,4.36-.71.34-1.45.68-2.24.71-4.62.15-3.89-7.39-6.09-9.77-3.72-4.04-7.85-1.71-9.38-8.82Z"/>
      <path class="cls-8" d="m244.42,114.65c4.23-.23,8.52-.45,12.64.46s8.12,3.13,10.1,6.68c3.16,5.68.43,12.95,3.05,18.88,1.2,2.71,3.43,4.89,4.96,7.46,3.19,5.34,2.88,12.57-1.31,17.24s-12.23,5.98-17.47,2.39c-1.68-1.15-3.01-2.69-4.63-3.91-7.81-5.85-19.09-2.59-29.02-3.22-1.17-.07-2.38-.22-3.4-.77-3.02-1.61-3.07-5.73-2.2-8.92s2.23-6.66.72-9.62c-.77-1.51-2.18-2.63-3.45-3.8-5.82-5.35-10.88-18.08-.79-22.07,7.29-2.88,22.79-.36,30.82-.79Z"/>
      <path class="cls-8" d="m283.74,259.78c2.86.78,6.12,1.76,8.48-.49,1.89-1.8,2.48-5.05,3.57-7.74s3.57-5.15,5.61-3.67c.02,12.44.03,24.88.05,37.32,0,1.38,0,2.82-.48,4.05-.78,2.06-2.6,3.01-4.28,3.7-4.87,1.99-9.94,3.18-15.04,3.53-1.48.1-3.05.11-4.32-.88-1.68-1.31-2.37-3.97-2.86-6.44-1.45-7.35-2.93-16.22-2.26-23.84.82-9.43,4.62-7.43,11.54-5.55Z"/>
      <path class="cls-9" d="m217.58,275.19c-1.48-3.97-1.61-8.81-1.69-13.42-.06-3.31-.07-6.91,1.17-9.57,1.26-2.7,3.52-3.7,5.63-3.82s4.22.46,6.32.14c4.59-.71,8.92-5.72,13.45-4.31.48.15.98.4,1.28,1,.26.51.34,1.18.39,1.83.78,8.68-.35,24.57-3.89,31.97-.57,1.18-1.39,1.97-2.22,2.62-6.01,4.7-16.63,3.79-20.44-6.45Z"/>
      <path class="cls-8" d="m136.15,293.86c-.33-1.04.11-2.15.54-3.15,1.85-4.34,3.71-8.69,5.56-13.03,1.48-3.48,3.58-7.45,7.48-8.07,2.48-.39,5.03.76,7.51.33,2.4-.41,4.23-2.19,6.13-3.65s4.43-2.71,6.7-1.84c-.09,2.2,3.75,2.33,4.91,4.24.34.57.41,1.24.47,1.89.82,9.03,5.98,26.18-7.01,29.09-4.92,1.1-31.03-1.85-32.28-5.81Z"/>
      <path class="cls-9" d="m102,292.67c-3.6-.64-7.96-2.45-7.88-5.88.09-3.69,5.26-5.4,6.69-8.83,1.42-3.41-.8-8.34,2.5-10.3,2.62-1.56,6.59.52,8.99-1.32.93-.72,1.41-1.92,2.48-2.45,2.36-1.16,5.19,1.83,7.67.93.66-.24,1.17-.72,1.62-1.23,2.2-2.54,2.86-5.92,4.27-8.91s4.24-5.94,7.72-5.66c2.09,2.43,5.78,3.55,9.01,2.74.09,1.6.19,3.21.28,4.81-2.52-.09-4.87,1.39-6.34,3.31s-2.21,4.23-2.86,6.5c-1.75,6.08-3.08,12.27-3.98,18.51-2.04,14.12-18.24,9.91-30.18,7.78Z"/>
      <path class="cls-13" d="m137.21,229.9c-3.53-2.95-3.85-7.95-4.39-12.38s-2.22-9.55-6.69-10.94"/>
      <path class="cls-13" d="m212.62,215.68c3.86-4.74,6.16-10.62,6.48-16.61"/>
      <path class="cls-3" d="m127.94,206.14c-.36-.15-.69-.33-.99-.56-.34-.17-.69-.32-1.05-.46-6.59-2.47-8.43-10.36-9.09-17.05-.66-6.69-1.78-14.5-7.95-17.81-4.72-2.53-10.6-1.33-15.86-.06-2.24.54-4.59,1.14-6.2,2.72-2.58,2.53-2.21,6.58-.52,9.82.68.69,1.37,1.36,1.98,2.11.14.18.25.37.37.55.25.17.47.37.67.58,1.07.65,1.9,1.7,2.21,3.15,1.37,1.42,2.7,2.87,3.75,4.51.58.91,1.06,1.87,1.5,2.84,1.62,2.36,3.05,4.95,4.22,7.61.17.14.33.28.45.4.15.18.29.36.43.55.14.18.29.37.42.55.03.05.06.1.09.15.27.47.45.96.56,1.47.76.74,1.58,1.44,2.42,2.09,4.62,3.59,16.81,11.1,23.3,8.33,6.36-2.71,3.83-8.63-.72-11.5Z"/>
      <path class="cls-3" d="m259.93,216.85c-.31-.26-.56-.56-.76-.9-4.72-1.09-8.78-5.13-12.99-7.93-8.11-5.39-19.21-6.45-28.29-2.7l-3.1,11.27c12.42-2.78,25.75-1.78,37.55,2.84,2.21.86,4.52,1.87,6.89,1.54,1.06-.15,2.08-.73,2.79-1.5-.11-.1-.21-.21-.31-.32-.95-.49-1.54-1.35-1.78-2.3Z"/>
      <path class="cls-13" d="m264.67,225.59c.43-3.11-1.38-6.18-3.83-8.29s-5.49-3.47-8.37-5c-6.65-3.52-13.19-8.86-14.02-16.04"/>
      <path class="cls-12" d="m36.6,26.4C26.69,19.46,16.61,12.35,9.27,2.72,3.98,6.5,2.26,13.58,2,20.08c-.35,8.62,1.42,17.79,7.26,24.14,7.26,7.91,19.32,9.71,29.85,7.62-8.74,13.34-12,30.15-8.87,45.78,1.07,5.35,3.11,10.91,7.55,14.08,4.47,3.19,10.54,3.36,15.07,6.44,5.11,3.48,7.24,9.86,9.03,15.78,1.41-2.12,3.21-3.98,5.28-5.46.39,5.22,3.71,10.13,8.41,12.44,1.64-4.4,4.22-8.45,7.51-11.81-.32,3.05.92,6.22,3.21,8.25,1.14-3.04,2.28-6.08,3.42-9.13.29-.78.61-1.6,1.24-2.16.73-.65,1.75-.83,2.72-.99,14.29-2.3,30.2-5.69,38.2-17.75,3.02-4.55,4.56-9.92,5.48-15.3,2.22-12.95,1.03-26.47-3.4-38.83,10.29,2.1,21.61-2.07,28.07-10.35,6.46-8.28,7.75-20.28,3.21-29.75-.64-1.33-2.02-2.82-3.32-2.12-.6.32-.89,1.01-1.18,1.63-2.54,5.36-8.31,8.31-13.76,10.65-6.78,2.92-13.7,5.5-20.73,7.75-.93.3-1.9.59-2.87.44-1.45-.23-2.52-1.41-3.55-2.46-5.29-5.41-12.31-9.09-19.77-10.37-3.78-.65-7.64-.7-11.48-.65-9.6.13-19.75,1.07-28.48,5.4-3.68,1.83-6.8,6.17-10.4,7.54-4.45,1.7-9.63-2.08-13.11-4.51Z"/>
      <path class="cls-13" d="m76.78,92.67c-.26,2.34-1.26,5.34.74,6.34,5,1,9,5,14,5s9-2,10.89-7.22"/>
      <path class="cls-13" d="m63.58,91.81c-.77,5.26,2.46,10.8,7.41,12.73.72-4.93,5.81-6.26,5.2-11.66"/>
      <ellipse class="cls-2" cx="103.96" cy="63.22" rx="11.94" ry="9.42" transform="translate(-5.59 10.28) rotate(-5.51)"/>
      <ellipse class="cls-4" cx="101.31" cy="63.48" rx="8.86" ry="9.38" transform="translate(-17.27 48.26) rotate(-24.76)"/>
      <ellipse class="cls-6" cx="100.23" cy="63.58" rx="3.71" ry="4.56" transform="translate(-11.33 23.04) rotate(-12.42)"/>
      <ellipse class="cls-14" cx="96.97" cy="58.48" rx="3.08" ry="3.79" transform="translate(-10.31 22.22) rotate(-12.42)"/>
      <ellipse class="cls-2" cx="60.55" cy="61.32" rx="11.87" ry="9.42" transform="translate(-5.52 5.99) rotate(-5.42)"/>
      <ellipse class="cls-4" cx="62.53" cy="60.71" rx="8.86" ry="9.38" transform="translate(-19.62 31.61) rotate(-24.65)"/>
      <ellipse class="cls-6" cx="62.53" cy="60.71" rx="3.71" ry="4.56" transform="translate(-11.52 14.74) rotate(-12.32)"/>
      <ellipse class="cls-14" cx="69.12" cy="57.68" rx="3.08" ry="3.79" transform="translate(-10.72 16.08) rotate(-12.32)"/>
      <path class="cls-1" d="m95.03,103.34c-3.76,2.24-6.05,6.97-10.34,7.82-1.22.24-2.47.13-3.71.01-4.28-.4-8.72-.92-12.35-3.2s-6.21-6.87-4.79-10.92c1.42,1.75,3.33,3.93,4.99,5.46.37.34.77.69,1.26.76.73.11,1.42-.44,1.81-1.07s.61-1.36,1.02-1.98c.97-1.46,2.92-2.02,4.67-1.82s3.34,1.05,4.89,1.89c3.43,1.86,8.67,2.81,12.56,3.04Z"/>
      <path class="cls-9" d="m146.62,36.67c1.58-1.1,3.42-1.9,5.18-2.78,6.38-3.18,11.91-7.56,16.02-12.68,1.31,5.8-1,11.81-3.37,17.49-1.36,3.25-2.78,6.53-5.21,9.35s-6.06,5.15-10.18,5.59c-14.54,1.55-9.52-12.03-2.44-16.98Z"/>
      <path class="cls-8" d="m18.02,28.73L6.73,15.52c-1.16-1.35-2.29-2.01-3.81-2.12-1.5,1.59-1.98,4.05-1.92,6.67.03.44.05.88.07,1.32.09,1.11.26,2.24.48,3.32,1.41,6.97,4.29,13.7,8.2,19.49,1.09,1.32,2.2,2.63,3.4,3.85.08.09.16.17.23.26.42.17.79.39,1.11.66.03.02.05.05.08.07.12.1.22.21.33.32.12-.02.24-.05.36-.06,4.7-.5,9.45-1.03,11.72-5.66.09-.18.19-.36.29-.52-1.77-5.39-5.61-10.12-9.25-14.39Z"/>
      <path class="cls-13" d="m57.01,45.46c5.33-4.01,14.26-2.92,19.28,2.34"/>
      <path class="cls-13" d="m96.51,50.47c4.45-4.97,13.41-5.64,19.37-1.46"/>
      <path class="cls-10" d="m48.39,30.41c2.29-9.6,7.78-18.41,15.38-24.7,2.86-2.37,6.21-4.46,9.92-4.68.86,1.51.16,3.48-1.01,4.77s-2.73,2.15-4,3.34c-3.33,3.11-4.24,7.96-4.98,12.46"/>
      <path class="cls-7" d="m101.31,17.91c6.92-7.55,17.16-11.94,27.4-11.74,2.22.04,4.7.43,6.05,2.2-1.26.02-2.5.65-3.26,1.66-7.84.82-15.03,6.21-18.01,13.51"/>
      <ellipse class="cls-5" cx="76.24" cy="88.5" rx="8.56" ry="3.3"/>
      <path class="cls-13" d="m264.73,205.77c1.44,2.7,5.38,4.2,8.53,2.7,2.36-.75-.79-5.97,2.36-7.47.79,0,3.15.75,3.94,0,3.15-2.24,0-5.23-2.93-4.87,2.64,1.27,5.83,1.44,8.6.47-6.43-6.02-8.56-15.49-16.8-19.7"/>
      <path class="cls-13" d="m160.16,224.92c1.94,1.51,3.46,3.49,4.4,5.7-5.31.56-10.7.35-15.94-.63,2.77.49,5.23,2.31,6.43,4.72-3.94.45-7.99.04-11.73-1.19"/>
      <ellipse class="cls-15" cx="118.03" cy="82.19" rx="10.6" ry="5.79"/>
      <ellipse class="cls-15" cx="44.97" cy="82.72" rx="10.6" ry="5.79"/>
    </g>
  </g>
</svg>