<?xml version="1.0" encoding="UTF-8"?>
<svg id="Layer_2" data-name="Layer 2" xmlns="http://www.w3.org/2000/svg" viewBox="0 0 441.25 263.7">
  <defs>
    <style>
      .cls-1 {
        letter-spacing: -.17em;
      }

      .cls-2 {
        fill: blue;
        font-family: Herculanum, Herculanum;
        font-size: 45px;
      }

      .cls-3 {
        fill: none;
        stroke: blue;
        stroke-miterlimit: 10;
        stroke-width: 10px;
      }

      .cls-4 {
        fill: #42210b;
      }

      .cls-4, .cls-5, .cls-6 {
        stroke-width: 0px;
      }

      .cls-5 {
        fill: #f7931e;
      }

      .cls-6 {
        fill: #006837;
      }
    </style>
  </defs>
  <g id="Layer_1-2" data-name="Layer 1">
    <g>
      <path class="cls-5" d="m405.98,117.86c1.93,0,1.93-3,0-3s-1.93,3,0,3h0Z"/>
      <polygon class="cls-3" points="309.43 29.54 395.88 116.82 309.43 204.09 136.53 204.09 50.08 116.82 136.53 29.54 309.43 29.54"/>
      <text class="cls-2" transform="translate(164.62 127.48)"><tspan x="0" y="0">PL</tspan><tspan class="cls-1" x="46.71" y="0">A</tspan><tspan x="68.9" y="0">Y!</tspan></text>
      <g>
        <path class="cls-6" d="m3.99,159.88c4.23-5.96,6.21-13.21,9.21-19.81,2.78-6.1,5.98-12.02,9.54-17.7,7.28-11.63,16.09-22.28,26.07-31.68s21.32-17.64,33.52-24.1c13.1-6.93,27.25-11.88,41.84-14.52s28.31-2.92,42.27-.65c1.72.28,3.44.6,5.15.96,1.88.39,2.69-2.5.8-2.89-14.06-2.93-28.54-3.22-42.75-1.29s-29.36,6.44-42.91,12.86c-12.96,6.14-24.97,14.18-35.74,23.63-10.46,9.17-19.75,19.7-27.57,31.2-3.86,5.67-7.35,11.6-10.43,17.73-1.55,3.1-2.99,6.25-4.33,9.44-1.45,3.46-2.68,7.01-4.33,10.37-.85,1.73-1.81,3.38-2.93,4.95s1.48,3.08,2.59,1.51h0Z"/>
        <g>
          <path class="cls-6" d="m87.88,60.72c23.69-4.14,47.2,5.97,58.27,25.07-22.12-.21-42.12-11.96-51.87-30.49"/>
          <path class="cls-6" d="m88.28,62.17c16.94-2.91,35.22,1.63,47.9,13.5,3.41,3.2,6.32,6.85,8.68,10.88l1.3-2.26c-16.15-.2-32-6.77-42.92-18.8-3.01-3.31-5.56-7-7.65-10.95-.91-1.71-3.5-.19-2.59,1.51,7.9,14.89,22.35,25.5,38.66,29.44,4.75,1.15,9.62,1.73,14.5,1.79,1.14.01,1.86-1.28,1.3-2.26-9.15-15.65-26.15-25.05-44-26.53-5.34-.44-10.69-.14-15.97.77-1.9.33-1.09,3.22.8,2.89h0Z"/>
        </g>
        <g>
          <path class="cls-6" d="m94.54,55.24C111.88,32.47,132.03,7.77,158.69,1.5c-17.45,22.47-37.72,42.92-60.03,60.58"/>
          <path class="cls-6" d="m95.83,56c6.79-8.91,13.73-17.75,21.44-25.89s15.81-15.29,25.38-20.65c5.17-2.9,10.67-5.13,16.44-6.51l-1.46-2.51c-13.63,17.53-28.89,33.78-45.54,48.47-4.72,4.16-9.55,8.2-14.49,12.11-1.51,1.2.62,3.31,2.12,2.12,17.4-13.79,33.51-29.2,48.05-45.98,4.12-4.76,8.11-9.63,11.98-14.6.88-1.14.11-2.88-1.46-2.51-22.04,5.26-38.98,22.2-52.97,39.09-4.15,5.01-8.14,10.16-12.08,15.34-1.17,1.54,1.43,3.03,2.59,1.51h0Z"/>
        </g>
        <g>
          <path class="cls-6" d="m59.17,77.31c-5.95-9.06-4.98-22.18.29-33.27s14.27-20.42,23.93-28.35c.92-.75,2.32-1.5,2.98-.72.37.44.25,1.14.12,1.75-4.72,22.15-13.34,44.03-25.3,64.28"/>
          <path class="cls-6" d="m60.46,76.55c-4.62-7.16-4.64-16.21-2.48-24.22,2.34-8.68,7.35-16.41,13.27-23.08,3-3.38,6.25-6.53,9.65-9.51.8-.7,1.6-1.38,2.41-2.06.42-.35.84-.73,1.28-1.04.2-.14.43-.24.63-.37.12-.07.25-.12.39-.14l-.5-.17c-.13.05-.3,1.47-.35,1.67-.11.51-.23,1.02-.34,1.53-.28,1.24-.58,2.47-.88,3.71-2.33,9.38-5.33,18.6-8.93,27.58-4.13,10.29-9.08,20.25-14.71,29.8-.98,1.67,1.61,3.18,2.59,1.51,10.82-18.35,19.11-38.25,24.16-58.96.3-1.23.59-2.47.87-3.71s.79-2.65.55-3.89c-.48-2.44-3.13-2.34-4.83-1.25-2,1.29-3.79,3.08-5.56,4.66s-3.64,3.35-5.37,5.12c-6.79,6.94-12.77,14.99-16.08,24.2s-4.09,21.23,1.65,30.14c1.04,1.62,3.64.12,2.59-1.51h0Z"/>
        </g>
        <g>
          <path class="cls-6" d="m58.35,84.23c18.41,3.55,34.72,13.32,45.87,27.48-22.35.84-42.3-13.32-47.95-34.04"/>
          <path class="cls-6" d="m57.95,85.67c13.8,2.7,26.83,8.95,37.22,18.49,2.89,2.65,5.55,5.54,7.99,8.61l1.06-2.56c-16.15.55-32.14-7.06-41.02-20.74-2.45-3.77-4.28-7.87-5.48-12.2-.51-1.86-3.41-1.07-2.89.8,4.57,16.51,18.15,29.24,34.64,33.53,4.81,1.25,9.79,1.78,14.75,1.61,1.4-.05,1.85-1.56,1.06-2.56-8.9-11.25-20.99-19.68-34.45-24.55-3.93-1.42-7.97-2.52-12.07-3.32-1.89-.37-2.69,2.52-.8,2.89h0Z"/>
        </g>
        <g>
          <path class="cls-6" d="m25.45,112.99c-6.99-4.23-14.12-8.59-18.91-15.17-4.8-6.58-6.88-15.91-3.07-24.31,2.33-5.12,6.54-9.33,10.78-13.19,6.21,16.71,10.99,34.12,14.28,52.02"/>
          <path class="cls-6" d="m26.21,111.69c-7.02-4.25-14.56-8.72-19.15-15.75s-5.53-16.12-1.34-23.56c2.41-4.27,5.99-7.73,9.59-11.01l-2.51-.66c6.26,16.89,11.01,34.31,14.28,52.02.35,1.9,3.24,1.09,2.89-.8-3.27-17.71-8.02-35.13-14.28-52.02-.4-1.07-1.63-1.46-2.51-.66-3.48,3.17-6.89,6.52-9.41,10.53S-.03,78.25,0,82.9c.07,9.18,5.12,17.08,12.01,22.78,3.95,3.27,8.32,5.95,12.69,8.6,1.66,1,3.17-1.59,1.51-2.59h0Z"/>
        </g>
        <g>
          <path class="cls-6" d="m25.68,112.55c8.72-5.1,19.26-3.63,26.67,1.21,7.4,4.84,12.3,12.51,16.91,20.09-14.89-6.39-29.78-12.77-44.67-19.16"/>
          <path class="cls-6" d="m26.44,113.85c5.91-3.39,12.94-3.78,19.36-1.62s11.61,7.08,15.65,12.46c2.38,3.17,4.47,6.54,6.52,9.92l2.05-2.05c-14.89-6.39-29.78-12.77-44.67-19.16-1.76-.75-3.29,1.83-1.51,2.59,14.89,6.39,29.78,12.77,44.67,19.16,1.27.55,2.91-.64,2.05-2.05-3.91-6.43-8.04-13.01-13.85-17.93s-12.46-7.51-19.76-7.3c-4.23.12-8.34,1.28-12.02,3.39-1.67.96-.17,3.55,1.51,2.59h0Z"/>
        </g>
        <g>
          <path class="cls-6" d="m153.56,47.07c12.42-8.77,28.77-10.53,40.56-4.36,1.84.96,3.75,2.98,2.5,4.99-.82,1.32-2.52,1.69-3.98,1.88-11.36,1.48-22.69,1.51-33.63.08"/>
          <path class="cls-6" d="m154.32,48.37c8.21-5.74,18.39-8.72,28.41-7.57,2.28.26,4.54.79,6.72,1.53,1.85.63,4.93,1.52,5.88,3.4,1.27,2.51-4.7,2.61-5.9,2.73-3.11.33-6.23.56-9.36.67-7.04.25-14.08-.07-21.06-.97-1.91-.25-1.89,2.76,0,3,7.06.91,14.19,1.23,21.31.96,3.62-.14,7.24-.42,10.84-.85,2.63-.31,6.03-.61,7.1-3.52,2.08-5.65-7.33-8.32-11.15-9.2-5.35-1.24-10.9-1.25-16.29-.29-6.46,1.15-12.64,3.77-18.01,7.52-1.57,1.1-.07,3.7,1.51,2.59h0Z"/>
        </g>
      </g>
      <path class="cls-6" d="m284.35,253.09c3.38-2.25,7.2-3.54,11.05-4.73,3.54-1.09,7.05-2.21,10.51-3.52,6.55-2.5,12.91-5.51,18.99-9.01,12.11-6.98,23.14-15.91,32.47-26.33,9.52-10.63,17.28-22.79,22.83-35.94,6.16-14.6,9.63-30.25,10.53-46.06s-.89-32.69-5.27-48.37c-.56-2-1.16-3.99-1.8-5.96-.59-1.83-3.49-1.05-2.89.8,4.96,15.31,7.43,31.37,7.18,47.46s-3.04,31.32-8.53,46.03c-4.96,13.31-12.23,25.76-21.34,36.65s-19.3,19.65-30.97,26.9c-5.83,3.62-11.95,6.81-18.29,9.46-3.22,1.34-6.5,2.56-9.81,3.63-3.72,1.21-7.5,2.2-11.11,3.73-1.77.75-3.46,1.61-5.06,2.67s-.1,3.66,1.51,2.59h0Z"/>
      <g>
        <path class="cls-6" d="m382.75,167.24c1.4-26.22-13.24-53.89-36.3-68.6,3.28,24.96,19.29,48.88,41.52,62.02"/>
        <path class="cls-6" d="m384.25,167.24c1.09-21.42-8.02-42.82-22.75-58.16-4.28-4.46-9.09-8.41-14.29-11.74-.87-.56-2.41.16-2.26,1.3,2.72,20.3,13.18,39.28,28.33,53,4.29,3.89,8.96,7.35,13.94,10.31,1.66.99,3.17-1.6,1.51-2.59-16.93-10.07-30.21-26.27-36.85-44.81-1.84-5.15-3.2-10.5-3.93-15.92l-2.26,1.3c17.51,11.24,30.12,29.88,34.27,50.25,1.14,5.61,1.58,11.34,1.29,17.06-.1,1.93,2.9,1.92,3,0h0Z"/>
      </g>
      <g>
        <path class="cls-6" d="m388.02,160.37c23.27-16.89,48.33-36.72,51.73-66.05-22.92,17.05-43.18,37.52-60,60.6"/>
        <path class="cls-6" d="m388.78,161.66c18.19-13.2,37.7-27.87,47.28-48.88,2.68-5.87,4.42-12.05,5.18-18.46.13-1.08-1.39-1.94-2.26-1.3-17.97,13.39-34.38,28.83-48.75,46.03-4.1,4.9-8.03,9.95-11.79,15.11-1.14,1.56,1.46,3.06,2.59,1.51,12.97-17.77,28.02-34.01,44.74-48.31,4.77-4.08,9.68-8,14.72-11.76l-2.26-1.3c-2.69,22.54-19.03,39.71-35.93,53.35-4.9,3.95-9.96,7.7-15.05,11.4-1.55,1.12-.05,3.73,1.51,2.59h0Z"/>
      </g>
      <g>
        <path class="cls-6" d="m368.02,197.66c11.03,7.76,25.68,8.19,37.46,3.55,11.78-4.64,21.05-13.7,28.65-23.67.72-.95,1.37-2.44.4-3.28-.54-.46-1.32-.42-1.99-.34-24.31,2.74-47.79,9.9-68.96,21.03"/>
        <path class="cls-6" d="m367.26,198.96c8.29,5.76,18.66,7.68,28.58,6.31s18.9-6.22,26.45-12.7c3.9-3.34,7.42-7.11,10.66-11.1,1.37-1.68,3.59-3.75,3.58-6.09,0-1.07-.58-2.08-1.53-2.6-1.11-.61-2.41-.37-3.59-.22-11.31,1.34-22.5,3.61-33.41,6.84-12.15,3.6-23.95,8.38-35.17,14.27-1.71.9-.2,3.49,1.51,2.59,18.42-9.65,38.39-16.21,58.91-19.55,2.64-.43,5.28-.8,7.93-1.12.56-.07,1.14-.17,1.7-.19.52-.02.57-.14.6.24.07.8-1.44,2.19-1.9,2.77-2.95,3.7-6.12,7.23-9.61,10.43-6.75,6.2-14.82,11.13-23.88,13.01-10.05,2.09-20.83.42-29.33-5.48-1.59-1.1-3.09,1.5-1.51,2.59h0Z"/>
      </g>
      <g>
        <path class="cls-6" d="m360.33,197.78c-6.54-21.17-19.8-40.69-37.3-54.9,2.14,25.09,20.85,49.23,44.98,58.01"/>
        <path class="cls-6" d="m361.78,197.39c-5.25-16.86-14.47-32.41-26.58-45.24-3.47-3.68-7.18-7.12-11.11-10.32-.89-.73-2.69-.37-2.56,1.06,1.82,20.6,13.87,39.66,30.7,51.43,4.76,3.33,9.93,6.02,15.39,8.03,1.81.67,2.6-2.23.8-2.89-18.4-6.76-33.44-22.38-40.23-40.69-1.9-5.11-3.17-10.45-3.65-15.88l-2.56,1.06c13.45,10.96,24.36,24.92,31.68,40.65,2.05,4.41,3.79,8.95,5.24,13.59.57,1.84,3.47,1.05,2.89-.8h0Z"/>
      </g>
      <g>
        <path class="cls-6" d="m332.45,231.51c5.73,8.37,11.63,16.91,19.7,23.08,8.07,6.17,18.89,9.61,27.83,6.29,5.45-2.03,9.61-6.28,13.38-10.61-19.69-8.95-39.98-16.37-60.6-22.16"/>
        <path class="cls-6" d="m331.16,232.27c6.09,8.88,12.37,17.99,21.22,24.35,7.9,5.68,18.91,9.3,28.39,5.56,5.55-2.19,9.8-6.43,13.66-10.85.57-.66.64-1.93-.3-2.36-15.38-6.98-31.16-13.09-47.26-18.21-4.54-1.45-9.11-2.81-13.7-4.1-1.86-.52-2.66,2.37-.8,2.89,16.03,4.51,31.79,9.96,47.17,16.33,4.39,1.82,8.75,3.71,13.08,5.68l-.3-2.36c-3.19,3.66-6.61,7.27-11,9.47-4.07,2.04-8.78,2.41-13.22,1.59-9.82-1.8-17.76-8.23-24.08-15.64-3.74-4.38-7-9.13-10.25-13.88-1.08-1.58-3.69-.08-2.59,1.51h0Z"/>
      </g>
      <g>
        <path class="cls-6" d="m332.91,231.3c4.55-9.24,1.44-21.29-5.04-30.2-6.48-8.91-15.8-15.33-24.98-21.4,9.25,17.53,18.5,35.05,27.75,52.58"/>
        <path class="cls-6" d="m334.21,232.06c3.69-7.67,2.62-16.47-.68-24.08-3.61-8.3-10.05-14.96-17.07-20.5-4.11-3.25-8.44-6.19-12.81-9.08-1.32-.87-2.71.8-2.05,2.05,9.25,17.53,18.5,35.05,27.75,52.58.9,1.71,3.49.19,2.59-1.51-9.25-17.53-18.5-35.05-27.75-52.58l-2.05,2.05c13.43,8.9,29.02,19.85,31.23,37.19.53,4.19.1,8.53-1.74,12.36-.83,1.73,1.75,3.26,2.59,1.51h0Z"/>
      </g>
      <g>
        <path class="cls-6" d="m389.08,94.79c8.17-12.98,7.9-31.2-.68-45.21-1.34-2.18-3.88-4.57-5.97-3.4-1.37.77-1.56,2.65-1.57,4.27-.11,12.63,1.43,25.4,4.55,37.9"/>
        <path class="cls-6" d="m390.38,95.55c6.78-10.89,7.78-24.76,3.85-36.84-1-3.06-2.3-6.04-3.91-8.83-1.37-2.39-3.56-5.47-6.65-5.5-3.61-.03-4.29,3.74-4.31,6.56-.03,3.85.11,7.7.39,11.54.65,8.86,2.07,17.65,4.21,26.27.46,1.87,3.36,1.08,2.89-.8-1.69-6.8-2.94-13.7-3.67-20.66-.36-3.44-.61-6.89-.73-10.35-.06-1.68-.09-3.36-.09-5.05,0-1.19-.27-3.01.46-4.06,1.52-2.16,4.56,2.92,5.11,3.91,1.45,2.59,2.63,5.31,3.52,8.14,1.69,5.36,2.36,11,1.95,16.61-.45,6.2-2.33,12.26-5.62,17.54-1.02,1.64,1.57,3.15,2.59,1.51h0Z"/>
      </g>
      <g>
        <path class="cls-4" d="m51.09,83.82c-2.97-.19-6.46-.69-7.87-3.32-.33-.6-.51-1.28-.62-1.96-.4-2.49.29-5.3,2.29-6.85s5.37-1.25,6.62.94c.69,1.2.66,2.66.61,4.04-.07,2.16-.15,4.32-.22,6.48"/>
        <path class="cls-4" d="m51.09,82.32c-1.9-.13-3.86-.34-5.45-1.33-.23-.15-.54-.4-.82-.74.12.14-.05-.06-.06-.08-.08-.11-.15-.23-.21-.35-.14-.25-.23-.49-.31-.76-.26-.89-.33-2-.2-2.86.15-.99.5-1.92,1.03-2.59.27-.34.64-.68.88-.83.49-.3.57-.34,1.11-.46.1-.02.2-.04.3-.06-.23.04.01,0,.06,0,.23-.01.45-.01.68-.01.06,0,.39.03.13,0,.1.01.2.03.3.05.24.05.48.12.71.22-.22-.09.22.13.3.18-.02-.01.35.26.2.14-.12-.1.1.1.12.12.26.27.44.51.59,1.04.37,1.31.16,2.79.12,4.14-.06,1.68-.11,3.36-.17,5.04-.07,1.93,2.93,1.93,3,0,.06-1.76.12-3.52.18-5.28.05-1.58.21-3.26-.26-4.79-.83-2.68-3.48-4.14-6.2-3.8-2.86.35-4.94,2.46-5.74,5.17s-.46,6.07,1.54,8.14,5.34,2.53,8.18,2.72c.81.05,1.5-.73,1.5-1.5,0-.86-.69-1.45-1.5-1.5h0Z"/>
      </g>
      <g>
        <path class="cls-4" d="m133.37,48.15c-1.57-.51-2-2.78-1.06-4.14s2.72-1.9,4.37-1.9c2.29,0,4.79,1.09,5.57,3.24.27.73.29,1.62-.23,2.2-.51.57-1.37.65-2.14.68-2.19.09-4.37.11-6.56.06"/>
        <path class="cls-4" d="m133.77,46.71c.33.12-.06-.05-.15-.1.28.14,0-.04-.11-.14.24.23,0-.05-.08-.17-.06-.09-.04-.22.01.04-.02-.09-.06-.19-.08-.28-.02-.08-.03-.15-.05-.23-.05-.2-.02.25.01.05.02-.13.01-.34,0-.48,0-.2-.08.23,0,.04.03-.07.03-.16.06-.23s.05-.15.07-.23c.04-.15-.13.2.02-.02.04-.06.08-.14.12-.2-.03.05-.17.18.03-.04.13-.14.26-.28.41-.4-.2.17.23-.15.28-.17.08-.05.17-.09.25-.14.23-.12-.04,0,.11-.05.37-.14.75-.23,1.14-.31.25-.05-.21.02.04,0,.07,0,.15-.02.22-.02.24-.02.48-.03.73-.02.19,0,.37.02.55.03.05,0,.29.04.02,0,.09.01.18.03.28.05.39.07.77.18,1.15.32.04.01.3.12.14.05-.15-.06.06.03.07.04.16.08.33.17.48.26s.31.19.45.3c-.21-.16-.03-.02.01.02.1.09.2.18.29.28.07.07.34.43.19.21.1.15.2.3.28.45.03.06.06.12.09.18.1.21-.06-.21,0,.03.03.09.05.19.08.28.04.15.02-.15.02.11,0,.1,0,.2,0,.29.02-.26,0-.02-.02.03.14-.23,0,0-.02.03.16-.19,0,.01-.04.03.24-.12-.02,0-.04,0,.24-.06.01,0-.03.01-.09.03-.19.05-.28.07-.42.1.25,0-.18.03-2.32.16-4.67.14-7,.08-.78-.02-1.54.7-1.5,1.5s.66,1.48,1.5,1.5c1.35.03,2.7.04,4.05.02s2.66.03,3.93-.23c1.46-.31,2.47-1.45,2.61-2.92.12-1.25-.42-2.46-1.18-3.42-1.36-1.72-3.64-2.54-5.78-2.62-2.26-.08-4.9.75-6.07,2.84-1.24,2.23-.39,5.27,2.08,6.14.74.26,1.67-.3,1.85-1.05.19-.84-.25-1.56-1.05-1.85h0Z"/>
      </g>
      <g>
        <path class="cls-4" d="m158.06,57.46c-2.2-.07-3.39-1.03-4.05-1.86-1.03-1.3-1.85-2.62-2.46-3.95-.3-.66-.46-1.44.76-1.9,1.47-.56,4.11-.25,5.31.4s1.35,1.51,1.47,2.31c.24,1.73.48,3.45.72,5.18"/>
        <path class="cls-4" d="m158.06,55.96c-.12,0-.24-.01-.37-.02-.08,0-.39-.05-.08,0-.17-.03-.34-.06-.5-.1-.19-.05-.38-.1-.57-.17-.04-.01-.19-.09-.21-.08.18.08.21.09.11.04-.05-.02-.09-.04-.14-.07-.15-.08-.29-.16-.43-.25-.05-.03-.1-.07-.16-.11-.21-.14.07.04.09.07-.05-.09-.24-.21-.32-.28-.09-.09-.19-.19-.27-.29-.06-.06-.25-.31-.22-.27.11.14-.2-.27-.17-.23-.06-.08-.12-.17-.18-.25-.3-.41-.58-.84-.84-1.27-.23-.38-.44-.76-.64-1.15-.1-.19-.18-.39-.28-.58-.12-.24.1.36.03.07-.02-.07-.04-.16-.07-.23-.04-.09-.02-.31.01.17,0-.05-.01-.1,0-.15-.06.46-.05.25,0,.14.06-.19-.18.36-.03.11-.02.03-.23.28-.05.1-.23.21-.12.1-.04.05.31-.2-.13.03.04-.03.09-.03.19-.06.28-.09.15-.04.31-.07.46-.1.35-.07-.25.01-.01,0,.09,0,.19-.02.28-.02.37-.02.75-.02,1.13,0,.16.01.38,0,.54.05-.27-.1-.15-.02-.05,0,.09.02.19.03.28.05.33.07.66.15.98.26.03.01.33.13.09.03s.03.02.06.04c.07.03.14.07.2.11-.01,0,.36.25.18.11-.17-.13.12.12.12.12.06.05.24.16-.02-.05.04.03.09.12.11.17.19.32-.02.03.02,0,0,0,.21.9.23.99.08.54.15,1.08.23,1.62.17,1.19.33,2.37.5,3.56.11.78,1.14,1.27,1.85,1.05.86-.28,1.16-1.01,1.05-1.85-.17-1.24-.35-2.48-.52-3.72-.14-.98-.19-1.99-.62-2.9-.88-1.9-3.15-2.46-5.05-2.63s-4.71.12-5.17,2.31c-.23,1.09.31,2.08.8,3.01.52.99,1.14,1.91,1.82,2.8.6.78,1.23,1.47,2.09,1.96,1.06.6,2.24.85,3.45.9.78.03,1.54-.71,1.5-1.5-.04-.84-.66-1.47-1.5-1.5h0Z"/>
      </g>
      <g>
        <path class="cls-4" d="m30.44,107.73c-.73.57-1.85.34-2.53-.29s-1-1.55-1.24-2.44c-.42-1.61-.64-3.27-.65-4.94,0-.36.02-.76.27-1.03.23-.25.59-.32.93-.37,1.46-.23,3.1-.43,4.31.42,1.41.98,1.67,2.96,1.49,4.66-.2,1.92-1.14,4.12-3.05,4.45"/>
        <path class="cls-4" d="m29.68,106.44c-.07.05-.15.09-.22.14.18-.13.11-.04,0-.02.38-.08-.33-.04.02.02-.09-.02-.52-.19-.27-.06-.08-.04-.16-.09-.23-.13-.32-.19.16.18-.12-.12-.02-.02-.19-.21-.06-.05-.06-.08-.12-.17-.17-.25s-.1-.18-.15-.27c-.01-.02-.12-.26-.04-.06-.18-.41-.29-.86-.4-1.29-.23-.94-.38-1.81-.46-2.68-.04-.47-.06-.95-.07-1.42,0-.05-.01-.66-.01-.33,0-.29.06-.07,0-.02-.06.13-.15.23-.27.28-.09.04-.06.03.1-.02.2-.03.4-.07.6-.1.03,0,.29-.04.07-.01.1-.01.21-.03.31-.04.44-.05.88-.07,1.32-.04.04,0,.35.04.18.01-.15-.02.09.02.1.02.19.05.39.09.57.17-.21-.09.02.02.05.04.09.06.17.1.26.16-.22-.15-.04-.04,0,0,.09.09.18.18.27.28-.2-.22.08.14.13.22.06.1.19.5.12.22.05.17.11.33.15.5.02.09.04.17.06.26,0,.04.06.4.04.2s0,.09,0,.14c0,.09.01.18.02.27,0,.18,0,.36,0,.54s-.01.36-.03.54c0,.09-.02.17-.03.26-.01.18.05-.25,0,.04-.08.41-.17.81-.31,1.2-.03.08-.06.16-.09.25-.06.16.1-.19-.03.06-.1.19-.19.38-.31.56-.04.07-.09.14-.14.21.12-.17.06-.07-.03.03-.12.13-.25.26-.39.38.23-.2.08-.06.01-.03-.11.05-.21.12-.31.17.06-.03.28-.08.02-.02-.12.03-.24.06-.36.09-.77.15-1.28,1.12-1.05,1.85.27.82,1.02,1.21,1.85,1.05,2.19-.42,3.5-2.57,3.95-4.61.48-2.16.35-4.62-1.08-6.39-.83-1.03-2.11-1.52-3.39-1.64-.52-.05-1.03-.03-1.55.02-.63.06-1.31.12-1.92.29-.82.24-1.5.84-1.74,1.68-.18.63-.14,1.32-.11,1.97.06,1.32.25,2.64.55,3.92s.78,2.78,1.85,3.71c1.14.98,2.95,1.36,4.25.43.64-.46,1.01-1.33.54-2.05-.41-.63-1.37-1.03-2.05-.54h0Z"/>
      </g>
      <g>
        <path class="cls-4" d="m73.94,69.38l2.3-1.15c1.32-.66,2.74-1.34,4.21-1.17s2.88,1.59,2.47,3c-.2.68-.74,1.19-1.32,1.6-1.53,1.08-3.41,1.64-5.28,1.57-.75-.03-1.53-.17-2.14-.61-.74-.54-1.13-1.55-.88-2.44s1.15-1.55,2.07-1.48"/>
        <path class="cls-4" d="m74.7,70.68c1.49-.75,2.95-1.65,4.48-2.03.46-.11.46-.08.93-.1.03,0,.32.03.08,0,.07.01.14.03.2.04s.13.04.2.06c.4.12-.11-.07.1.04.15.08.29.16.42.26-.2-.15.12.13.17.18.12.12,0-.01-.02-.04.05.07.09.15.15.23.04.05.1.26.02,0,.03.08.05.17.07.25-.1-.32-.02.2,0,.05.03-.19-.18.36-.04.12-.05.09-.1.17-.16.25.02-.03.11-.13,0-.01-.05.06-.1.11-.16.16,0,0-.29.25-.2.18-.43.34-1.29.8-1.77.97-.36.13-.73.24-1.11.32-.46.1-.49.11-.99.13-.37.02-.75.02-1.12-.02-.18-.02-.01,0,.02,0-.1-.02-.2-.04-.3-.06s-.19-.05-.29-.08c-.08-.02-.2-.09-.06-.02-.09-.04-.17-.1-.26-.15.12.07.04.05-.03-.03-.06-.07-.13-.13-.19-.2.1.12.05.06,0-.04-.13-.26-.05-.08-.02-.02-.03-.09-.05-.17-.08-.26-.08-.28,0-.07,0,0,0-.09,0-.18,0-.27,0,.28-.02.05.02,0,.14-.22-.03.06.04-.08s-.02-.01-.04.02c.02-.03.27-.29.14-.17s.07-.05.07-.05l.12-.07c-.13.04-.15.05-.05.02.06-.02.13-.03.2-.06-.24.08.02,0,.14.01.78.03,1.54-.71,1.5-1.5-.04-.84-.66-1.46-1.5-1.5-1.26-.06-2.49.65-3.14,1.72s-.61,2.36-.11,3.49c1.08,2.39,4.08,2.53,6.32,2.15,1.12-.19,2.23-.6,3.22-1.17s2.06-1.37,2.52-2.47c.99-2.34-.83-4.84-3.2-5.29-2.77-.52-5.43,1.26-7.8,2.45-.72.36-.93,1.39-.54,2.05.43.74,1.33.9,2.05.54h0Z"/>
      </g>
      <g>
        <path class="cls-4" d="m359.74,193.18l2.3-1.03c1.32-.59,2.74-1.2,4.21-1.04s2.88,1.42,2.47,2.69c-.2.6-.74,1.06-1.32,1.43-1.53.96-3.41,1.47-5.28,1.4-.75-.02-1.53-.15-2.14-.55-.74-.49-1.13-1.39-.88-2.18s1.15-1.39,2.07-1.32"/>
        <path class="cls-4" d="m360.49,194.48c1.5-.67,2.85-1.42,4.41-1.79.18-.04.31-.07.37-.08.2-.02.41-.03.61-.02.1,0,.49.08.24.01.19.05.37.09.55.16-.24-.1.15.1.21.14s.12.08.17.12c-.07-.05-.15-.16.01.03.07.08.23.31.1.1.04.07.08.15.13.22-.07-.11-.05-.17-.02-.01.02.08.03.28,0-.04,0,.04-.03.22,0,.04.04-.21-.01.03-.02.05.02-.02.17-.28-.02.01-.14.21.08-.05-.11.13-.07.07-.14.13-.21.19.12-.1.03-.02-.04.03-.62.42-1.21.72-1.77.91-.36.12-.73.22-1.1.3-.16.03-.32.06-.48.09.2-.03-.07,0-.09.01-.11.01-.22.02-.33.03-.38.03-.77.03-1.15.01-.06,0-.44-.04-.25-.01-.21-.03-.42-.09-.62-.15-.03,0-.26-.11-.08-.02-.09-.05-.18-.1-.27-.15.25.16-.23-.28-.05-.03-.04-.05-.07-.11-.11-.17-.1-.15.08.2-.03-.06,0-.02-.07-.24-.03-.05s0-.16,0-.19c0,.03.02.24,0,.08.03-.08.02-.08,0,0-.05.1-.03.08.04-.06-.16.25.17-.16.07-.08-.13.11.1-.06.14-.08.19-.12-.18.05.03-.02.07-.02.14-.04.21-.06-.27.06.1.01.17.01.78.03,1.54-.71,1.5-1.5-.04-.84-.66-1.47-1.5-1.5-1.24-.05-2.43.57-3.13,1.59s-.65,2.37-.06,3.42c1.26,2.21,4.22,2.22,6.42,1.85,1.09-.18,2.15-.56,3.13-1.07s1.97-1.19,2.43-2.2c1.05-2.29-.89-4.63-3.18-5-2.76-.45-5.37,1.12-7.8,2.2-.74.33-.92,1.41-.54,2.05.45.76,1.31.87,2.05.54h0Z"/>
      </g>
      <g>
        <path class="cls-4" d="m338.13,227.89c-1.57-.51-2-2.78-1.06-4.14s2.72-1.9,4.37-1.9c2.29,0,4.79,1.09,5.57,3.24.27.73.29,1.62-.23,2.2-.51.57-1.37.65-2.14.68-2.19.09-4.37.11-6.56.06"/>
        <path class="cls-4" d="m338.52,226.44c.33.12-.06-.05-.15-.1.28.14,0-.04-.11-.14.24.23,0-.05-.08-.17-.06-.09-.04-.22.01.04-.02-.09-.06-.19-.08-.28-.02-.08-.03-.15-.05-.23-.05-.2-.02.25.01.05.02-.13.01-.34,0-.48,0-.2-.08.23,0,.04.03-.07.03-.16.06-.23s.05-.15.07-.23c.04-.15-.13.2.02-.02.04-.06.08-.14.12-.2-.03.05-.17.18.03-.04.13-.14.26-.28.41-.4-.2.17.23-.15.28-.17.08-.05.17-.09.25-.14.23-.12-.04,0,.11-.05.37-.14.75-.23,1.14-.31.25-.05-.21.02.04,0,.07,0,.15-.02.22-.02.24-.02.48-.03.73-.02.19,0,.37.02.55.03.05,0,.29.04.02,0,.09.01.18.03.28.05.39.07.77.18,1.15.32.04.01.3.12.14.05-.15-.06.06.03.07.04.16.08.33.17.48.26s.31.19.45.3c-.21-.16-.03-.02.01.02.1.09.2.18.29.28.07.07.34.43.19.21.1.15.2.3.28.45.03.06.06.12.09.18.1.21-.06-.21,0,.03.03.09.05.19.08.28.04.15.02-.15.02.11,0,.1,0,.2,0,.29.02-.26,0-.02-.02.03.14-.23,0,0-.02.03.16-.19,0,.01-.04.03.24-.12-.02,0-.04,0,.24-.06.01,0-.03.01-.09.03-.19.05-.28.07-.42.1.25,0-.18.03-2.32.16-4.67.14-7,.08-.78-.02-1.54.7-1.5,1.5s.66,1.48,1.5,1.5c1.35.03,2.7.04,4.05.02s2.66.03,3.93-.23c1.46-.31,2.47-1.45,2.61-2.92.12-1.25-.42-2.46-1.18-3.42-1.36-1.72-3.64-2.54-5.78-2.62-2.26-.08-4.9.75-6.07,2.84-1.24,2.23-.39,5.27,2.08,6.14.74.26,1.67-.3,1.85-1.05.19-.84-.25-1.56-1.05-1.85h0Z"/>
      </g>
      <g>
        <path class="cls-4" d="m394.68,132.09c-.87,1.41-3.17,1.27-4.28.04s-1.2-3.09-.8-4.7c.55-2.22,2.21-4.38,4.48-4.63.77-.08,1.65.11,2.08.75.43.64.3,1.48.15,2.24-.44,2.14-.94,4.27-1.52,6.38"/>
        <path class="cls-4" d="m393.39,131.33c-.15.23,0,0,.04-.04-.05.05-.1.1-.15.15-.21.23.17-.06,0,0-.06.02-.14.07-.19.1-.15.11.25-.05.06-.03-.07,0-.14.04-.21.06-.05.02-.29.06-.07.02.24-.04-.13,0-.19,0-.07,0-.15-.02-.22,0-.2.02.26.07.06.01-.16-.05-.33-.08-.5-.13-.09-.03-.21-.13.04.02-.06-.04-.14-.07-.2-.1s-.13-.08-.19-.12c-.22-.13.06.11,0,0-.03-.05-.37-.44-.23-.23-.11-.15-.2-.31-.28-.48-.03-.05-.1-.26-.01-.02-.03-.09-.06-.18-.09-.26-.07-.22-.12-.45-.15-.69.04.3,0-.25,0-.31,0-.19,0-.38.01-.58,0-.1.02-.19.03-.29-.03.26,0,.02,0-.03.04-.23.09-.46.15-.69.05-.17.1-.35.16-.52.02-.06.23-.54.1-.28.17-.37.37-.73.6-1.08-.01.02.25-.34.12-.18-.11.14.07-.08.1-.11.12-.14.24-.27.37-.39.05-.05.5-.41.25-.23.16-.11.32-.22.5-.32.08-.04.16-.08.23-.12.19-.11-.21.06,0,0,.19-.05.38-.12.57-.16.06-.02.29-.04,0,0,.09,0,.17-.02.26-.02s.18,0,.26,0h.13c-.18-.01-.19,0-.01.03.01.01.32.11,0-.02.08.03.15.08.22.12-.07-.04-.16-.2-.01,0-.06-.07-.1-.23,0,.02-.12-.28.02.38.01.05,0,.1,0,.19,0,.29,0,.02-.05.48,0,.19-.34,2.29-.99,4.58-1.6,6.81-.21.76.26,1.66,1.05,1.85s1.62-.24,1.85-1.05c.35-1.29.68-2.59.98-3.89s.7-2.61.74-3.91c.05-1.43-.69-2.64-2.01-3.2-1.07-.45-2.35-.35-3.41.08-2.16.87-3.65,2.86-4.3,5.05s-.51,4.99,1.25,6.65,5.02,1.7,6.47-.5c.43-.66.15-1.69-.54-2.05-.75-.4-1.59-.16-2.05.54h0Z"/>
      </g>
      <g>
        <path class="cls-4" d="m385.48,100.9c-.87,1.41-3.17,1.27-4.28.04s-1.2-3.09-.8-4.7c.55-2.22,2.21-4.38,4.48-4.63.77-.08,1.65.11,2.08.75.43.64.3,1.48.15,2.24-.44,2.14-.94,4.27-1.52,6.38"/>
        <path class="cls-4" d="m384.19,100.14c-.15.23,0,0,.04-.04-.05.05-.1.1-.15.15-.21.23.17-.06,0,0-.06.02-.14.07-.19.1-.15.11.25-.05.06-.03-.07,0-.14.04-.21.06-.05.02-.29.06-.07.02.24-.04-.13,0-.19,0-.07,0-.15-.02-.22,0-.2.02.26.07.06.01-.16-.05-.33-.08-.5-.13-.09-.03-.21-.13.04.02-.06-.04-.14-.07-.2-.1s-.13-.08-.19-.12c-.22-.13.06.11,0,0-.03-.05-.37-.44-.23-.23-.11-.15-.2-.31-.28-.48-.03-.05-.1-.26-.01-.02-.03-.09-.06-.18-.09-.26-.07-.22-.12-.45-.15-.69.04.3,0-.25,0-.31,0-.19,0-.38.01-.58,0-.1.02-.19.03-.29-.03.26,0,.02,0-.03.04-.23.09-.46.15-.69.05-.17.1-.35.16-.52.02-.06.23-.54.1-.28.17-.37.37-.73.6-1.08-.01.02.25-.34.12-.18-.11.14.07-.08.1-.11.12-.14.24-.27.37-.39.05-.05.5-.41.25-.23.16-.11.32-.22.5-.32.08-.04.16-.08.23-.12.19-.11-.21.06,0,0,.19-.05.38-.12.57-.16.06-.02.29-.04,0,0,.09,0,.17-.02.26-.02s.18,0,.26,0h.13c-.18-.01-.19,0-.01.03.01.01.32.11,0-.02.08.03.15.08.22.12-.07-.04-.16-.2-.01,0-.06-.07-.1-.23,0,.02-.12-.28.02.38.01.05,0,.1,0,.19,0,.29,0,.02-.05.48,0,.19-.34,2.29-.99,4.58-1.6,6.81-.21.76.26,1.66,1.05,1.85s1.62-.24,1.85-1.05c.35-1.29.68-2.59.98-3.89s.7-2.61.74-3.91c.05-1.43-.69-2.64-2.01-3.2-1.07-.45-2.35-.35-3.41.08-2.16.87-3.65,2.86-4.3,5.05s-.51,4.99,1.25,6.65,5.02,1.7,6.47-.5c.43-.66.15-1.69-.54-2.05-.75-.4-1.59-.16-2.05.54h0Z"/>
      </g>
    </g>
  </g>
</svg>