<?xml version="1.0" encoding="UTF-8"?>
<svg id="Layer_1" data-name="Layer 1" xmlns="http://www.w3.org/2000/svg" viewBox="0 0 595.28 841.89">
  <defs>
    <style>
      .cls-1 {
        fill: #8b5e3c;
        stroke: #8b5e3c;
        stroke-width: 5px;
      }

      .cls-1, .cls-2, .cls-3, .cls-4, .cls-5, .cls-6, .cls-7, .cls-8, .cls-9, .cls-10, .cls-11 {
        stroke-miterlimit: 10;
      }

      .cls-12, .cls-11 {
        fill: none;
      }

      .cls-12, .cls-13, .cls-14, .cls-15 {
        stroke-width: 0px;
      }

      .cls-2, .cls-3, .cls-4 {
        fill: #fff;
      }

      .cls-2, .cls-8, .cls-9 {
        stroke: #603913;
      }

      .cls-3, .cls-6, .cls-7, .cls-10, .cls-11 {
        stroke: #231f20;
      }

      .cls-4 {
        stroke: #a97c50;
      }

      .cls-5 {
        fill: #a97c50;
        stroke: #c49a6c;
      }

      .cls-6 {
        fill: #c49a6c;
      }

      .cls-7, .cls-8 {
        fill: #3c2415;
      }

      .cls-9 {
        fill: #603913;
      }

      .cls-10 {
        fill: #754c29;
      }

      .cls-13 {
        fill: #412312;
      }

      .cls-14 {
        fill: #f79421;
      }

      .cls-15 {
        fill: #046937;
      }
    </style>
  </defs>
  <g>
    <g>
      <path class="cls-15" d="m402.73,503.76c2.06.29,4.02-.14,6.07-.29s3.92-.11,5.87.11c3.86.43,7.68,1.63,11.12,3.42,6.75,3.51,12.01,9.23,15.44,15.97,1.98,3.9,3.29,8.11,3.98,12.43.3,1.9,3.19,1.09,2.89-.8-2.55-15.95-14.12-30.44-30.43-33.57-2.26-.43-4.56-.66-6.86-.64-1.08.01-2.16.08-3.24.2-1.33.15-2.72.48-4.06.29-.81-.11-1.6.2-1.85,1.05-.2.7.25,1.73,1.05,1.85h0Z"/>
      <g>
        <path class="cls-15" d="m435.75,512.03c3.41,6.26,3.33,14.65-.21,20.79-2.19-6.47-1.35-14.09,2.18-19.76"/>
        <path class="cls-15" d="m434.46,512.78c3.15,5.9,3.07,13.45-.21,19.28l2.74.36c-2.03-6.15-1.36-13.06,2.03-18.61,1.01-1.65-1.58-3.16-2.59-1.51-3.78,6.18-4.6,14.05-2.33,20.92.39,1.19,2.08,1.53,2.74.36,3.82-6.78,3.87-15.45.21-22.31-.91-1.7-3.5-.19-2.59,1.51h0Z"/>
      </g>
      <g>
        <path class="cls-15" d="m437.76,513.12c7.31,1.56,15.37,3.64,19.6,10.43-7.25-1.64-14.29-4.4-20.85-8.19"/>
        <path class="cls-15" d="m437.37,514.57c6.91,1.48,14.66,3.38,18.71,9.74l1.69-2.2c-7.21-1.65-14.08-4.36-20.49-8.03-1.68-.96-3.19,1.63-1.51,2.59,6.62,3.8,13.77,6.64,21.21,8.34,1.22.28,2.43-1.05,1.69-2.2-4.51-7.09-12.74-9.46-20.5-11.12-1.88-.4-2.69,2.49-.8,2.89h0Z"/>
      </g>
      <g>
        <path class="cls-15" d="m428.8,506.21c1.61-3.12,4.9-4.84,8.14-5.01s6.43,1.02,9.34,2.62c.28.15.6.45.48.76-.07.17-.25.25-.42.3-5.88,2.02-12.09,2.86-18.24,2.48"/>
        <path class="cls-15" d="m430.09,506.97c1.27-2.38,3.65-3.91,6.32-4.23,1.55-.19,3.11.04,4.6.46.83.23,1.64.53,2.42.87.46.2,1.87.7,2.04,1.03l-.2-.76-.02.23.2-.76-.1.14.54-.54c-.41.26-1.38.48-1.96.65-.67.2-1.35.38-2.03.55-1.53.38-3.07.68-4.63.9-3.03.43-6.11.51-9.17.34-1.93-.11-1.92,2.89,0,3,3.28.19,6.54.04,9.79-.42,1.62-.23,3.22-.54,4.8-.93,1.44-.35,3.05-.68,4.38-1.33,1.59-.77,1.45-2.69.06-3.59-1.27-.83-2.8-1.43-4.23-1.94-2.73-.96-5.76-1.32-8.59-.54s-5.4,2.69-6.82,5.34c-.91,1.7,1.68,3.22,2.59,1.51h0Z"/>
      </g>
      <g>
        <path class="cls-15" d="m427.03,507.03c1,5.9.27,12.14-2.06,17.55-2.47-6.37-1.04-14.35,3.44-19.16"/>
        <path class="cls-15" d="m425.58,507.43c.9,5.48.26,11.28-1.9,16.4l2.74.36c-2.21-5.85-1.22-13.02,3.06-17.7,1.3-1.42-.82-3.55-2.12-2.12-4.96,5.43-6.42,13.77-3.83,20.62.39,1.04,2.19,1.67,2.74.36,2.51-5.94,3.25-12.35,2.21-18.71-.13-.8-1.12-1.25-1.85-1.05-.85.23-1.18,1.04-1.05,1.85h0Z"/>
      </g>
      <g>
        <path class="cls-15" d="m416.68,501.87c.32-2.68.66-5.42,1.78-7.83s3.18-4.44,5.62-4.62c1.48-.11,2.94.47,4.31,1.12-3.44,4.37-7.21,8.42-11.24,12.12"/>
        <path class="cls-15" d="m418.18,501.87c.36-2.99.71-6.35,2.61-8.82.69-.89,1.63-1.69,2.68-1.99,1.36-.39,2.85.18,4.16.78l-.3-2.36c-3.42,4.33-7.18,8.39-11.24,12.12-1.42,1.31.7,3.43,2.12,2.12,4.06-3.74,7.81-7.79,11.24-12.12.54-.68.66-1.91-.3-2.36-1.91-.89-3.89-1.6-6.02-1.19-1.68.32-3.22,1.41-4.31,2.7-2.63,3.12-3.16,7.2-3.63,11.11-.1.81.76,1.5,1.5,1.5.89,0,1.4-.69,1.5-1.5h0Z"/>
      </g>
      <g>
        <path class="cls-15" d="m416.81,501.87c2.13,1.76,2.84,5.05,2.41,7.94s-1.8,5.5-3.19,8c.05-5.31.1-10.62.15-15.93"/>
        <path class="cls-15" d="m415.75,502.93c1.79,1.54,2.27,4.02,2.04,6.29-.28,2.81-1.71,5.4-3.05,7.83l2.8.76c.05-5.31.1-10.62.15-15.93.02-1.93-2.98-1.93-3,0-.05,5.31-.1,10.62-.15,15.93-.01,1.47,2.07,2.07,2.8.76,1.65-2.99,3.23-6.12,3.48-9.59.21-2.93-.64-6.2-2.94-8.17-1.46-1.25-3.59.86-2.12,2.12h0Z"/>
      </g>
      <g>
        <path class="cls-15" d="m445.73,529.05c3.4,2.27,5.48,6.76,5.17,11.13-.05.68-.35,1.55-.96,1.49-.4-.04-.67-.48-.86-.87-1.51-3.08-2.67-6.37-3.43-9.77"/>
        <path class="cls-15" d="m444.98,530.34c2.86,1.95,4.48,5.61,4.46,9.05,0,.26,0,.53-.03.78.03-.24-.06.25-.06.25.06-.1.05-.07-.04.08.22-.33.59-.41,1.12-.23.04.01.08.03.11.06-.06-.1-.11-.2-.16-.3-.46-.9-.87-1.84-1.24-2.79-.85-2.15-1.52-4.37-2.03-6.63-.18-.79-1.09-1.26-1.85-1.05-.81.22-1.23,1.05-1.05,1.85.49,2.18,1.14,4.33,1.95,6.41.41,1.05.85,2.08,1.33,3.1s1.04,2.06,2.26,2.21c2.61.32,2.79-3.04,2.65-4.83-.16-1.99-.69-3.91-1.6-5.68-1-1.96-2.48-3.64-4.3-4.88-.67-.46-1.66-.13-2.05.54-.43.74-.13,1.59.54,2.05h0Z"/>
      </g>
    </g>
    <g>
      <path class="cls-13" d="m426.39,504.86c-.25-.89-.48-1.98.01-2.8.11-.19.26-.34.41-.48.57-.5,1.32-.73,1.9-.38s.85,1.37.44,2.07c-.22.38-.58.6-.92.8-.53.31-1.07.62-1.6.93"/>
      <path class="cls-13" d="m427.84,504.46c-.1-.37-.2-.74-.25-1.13l.05.4c-.04-.3-.05-.6,0-.9l-.05.4c.03-.17.07-.34.13-.51l-.15.36c.06-.15.14-.29.24-.42l-.23.3c.13-.16.28-.31.45-.44l-.3.23c.15-.11.3-.2.47-.28l-.36.15c.16-.07.32-.12.5-.14l-.4.05c.11-.01.22-.01.33,0l-.4-.05c.11.02.21.04.31.08l-.36-.15c.09.04.18.09.26.15l-.3-.23c.07.06.13.12.19.19l-.23-.3c.08.1.14.21.19.33l-.15-.36c.07.16.11.32.13.48l-.05-.4c.02.15.02.31,0,.46l.05-.4c-.02.14-.06.27-.11.39l.15-.36c-.05.1-.11.2-.17.29l.23-.3c-.1.12-.21.23-.34.33l.3-.23c-.3.23-.64.4-.96.59-.37.22-.75.43-1.12.65-.33.19-.59.53-.69.9s-.05.84.15,1.16c.44.69,1.33.96,2.05.54.43-.25.85-.49,1.28-.74.45-.26.91-.52,1.28-.88.83-.81,1.13-2.13.72-3.22-.24-.62-.58-1.14-1.14-1.5-.61-.39-1.3-.45-2-.34-.62.09-1.15.43-1.63.8-.51.4-.85.93-1.08,1.52-.19.51-.25,1.09-.2,1.63.05.58.16,1.15.32,1.71.1.36.36.7.69.9s.8.27,1.16.15c.77-.25,1.28-1.04,1.05-1.85h0Z"/>
    </g>
    <g>
      <path class="cls-13" d="m443.43,523.34c-.04-.54.47-1.01.9-.94s.74.5.91.98c.23.67.22,1.56-.23,2.12-.15.19-.37.33-.56.27-.19-.06-.3-.3-.38-.52-.24-.62-.47-1.26-.68-1.9"/>
      <path class="cls-13" d="m444.93,523.34s0-.1,0-.14l-.05.4c.01-.08.03-.15.06-.23l-.15.36c.04-.09.08-.16.14-.24l-.23.3c.05-.06.1-.11.16-.16l-.3.23c.07-.05.14-.1.22-.13l-.36.15c.05-.02.1-.03.16-.04l-.4.05c.05,0,.1,0,.16,0l-.4-.05c.06.01.11.03.17.05l-.36-.15c.07.03.13.07.19.11l-.3-.23c.09.07.16.15.23.23l-.23-.3c.1.14.18.29.25.44l-.15-.36c.09.22.15.44.18.67l-.05-.4c.03.23.03.47,0,.7l.05-.4c-.03.18-.07.35-.14.52l.15-.36c-.06.13-.13.26-.22.37l.23-.3c-.05.06-.1.11-.16.16l.3-.23s-.08.06-.13.08l.36-.15s-.09.03-.14.04l.4-.05s-.06,0-.09,0l.4.05s-.06-.01-.08-.03l.36.15s-.05-.03-.07-.05l.3.23s-.06-.06-.09-.1l.23.3c-.06-.08-.1-.17-.14-.26l.15.36c-.27-.65-.5-1.32-.72-1.99-.12-.37-.35-.7-.69-.9-.32-.19-.8-.27-1.16-.15s-.71.34-.9.69-.28.77-.15,1.16.25.76.39,1.14c.16.45.32.93.54,1.35.41.77,1.3,1.22,2.16.98.62-.17,1.15-.65,1.44-1.22.44-.87.51-1.84.28-2.78-.25-1-.93-1.96-1.96-2.24-1.45-.4-2.92.92-2.87,2.38.01.39.16.78.44,1.06.26.26.69.46,1.06.44s.79-.14,1.06-.44.45-.66.44-1.06h0Z"/>
    </g>
    <g>
      <path class="cls-13" d="m443.66,531.94c-.21-.65-.09-1.14.04-1.46.21-.5.45-.94.71-1.32.13-.19.3-.35.54-.07.29.34.48,1.16.44,1.61s-.23.62-.42.78c-.4.33-.79.67-1.19,1"/>
      <path class="cls-13" d="m445.11,531.55c-.04-.14-.07-.27-.09-.42l.05.4c-.02-.19-.02-.37,0-.55l-.05.4c.03-.17.07-.33.14-.49l-.15.36c.21-.48.44-.97.76-1.39l-.23.3s.07-.08.11-.11l-.3.23s.04-.03.06-.03l-.36.15s.04-.01.06-.02l-.4.05h.03c-.13-.02-.27-.04-.4-.05.02,0,.05,0,.07.02l-.36-.15s.05.03.08.05l-.3-.23s.07.07.1.11l-.23-.3c.07.1.13.2.18.32l-.15-.36c.11.26.18.54.22.82l-.05-.4c.02.17.03.34.01.51l.05-.4c-.01.1-.04.2-.07.29l.15-.36c-.03.07-.07.14-.12.21l.23-.3c-.16.2-.39.36-.58.52-.28.23-.55.47-.83.7s-.44.71-.44,1.06.16.81.44,1.06.66.46,1.06.44.74-.17,1.06-.44c.29-.25.59-.49.88-.74s.56-.48.79-.81c.48-.72.44-1.68.24-2.48-.09-.35-.22-.71-.4-1.02-.15-.26-.34-.48-.57-.66-.44-.34-.94-.45-1.49-.34-.6.13-.99.61-1.3,1.1-.18.29-.34.59-.49.9-.2.43-.36.82-.42,1.28-.07.53-.04,1.05.12,1.57.11.37.35.7.69.9s.8.27,1.16.15.71-.34.9-.69.27-.77.15-1.16h0Z"/>
    </g>
    <g>
      <path class="cls-13" d="m418.47,502.51c-.21-.12-.27-.49-.19-.78s.28-.53.47-.73c.35-.37.73-.69,1.14-.94.09-.06.19-.11.28-.08.08.03.14.12.19.21.2.39.42.83.33,1.32-.1.56-.55.94-.99,1.15-.49.24-1.12.3-1.39-.21"/>
      <path class="cls-13" d="m419.23,501.22l-.03-.02.3.23s-.05-.04-.07-.06l.23.3s-.05-.07-.07-.11l.15.36c-.03-.07-.04-.14-.06-.21l.05.4c0-.08,0-.15,0-.23l-.05.4c.01-.1.04-.19.08-.28l-.15.36c.06-.14.14-.26.23-.38l-.23.3c.26-.33.58-.62.91-.88l-.3.23c.17-.13.35-.27.54-.36l-.36.15s.05-.02.08-.02l-.4.05h.04c-.13-.02-.27-.04-.4-.05h.04c-.12-.04-.24-.09-.36-.14.02,0,.04.02.06.03l-.3-.23s.03.03.05.05l-.23-.3c.11.16.2.36.28.54l-.15-.36c.06.16.11.32.14.49l-.05-.4c.02.13.02.25,0,.38l.05-.4c-.02.11-.04.22-.09.32l.15-.36c-.05.11-.11.21-.18.3l.23-.3c-.09.12-.2.23-.32.32l.3-.23c-.16.12-.32.22-.5.29l.36-.15c-.14.06-.29.1-.44.12l.4-.05c-.1.01-.2.01-.3,0l.4.05c-.08-.01-.15-.03-.22-.06l.36.15s-.09-.05-.14-.08l.3.23s-.08-.07-.12-.12l.23.3s-.06-.08-.08-.12c-.18-.33-.54-.59-.9-.69s-.84-.05-1.16.15-.6.51-.69.9-.05.8.15,1.16c.58,1.01,1.86,1.37,2.92.97.5-.19.88-.41,1.29-.75s.68-.82.85-1.31c.09-.26.13-.56.12-.83,0-.19-.04-.39-.07-.58-.02-.11-.04-.21-.08-.31-.16-.49-.41-1.05-.77-1.42-.3-.3-.74-.48-1.16-.48-.33,0-.59.08-.88.23-.17.08-.32.19-.47.3-.39.29-.76.59-1.09.94-.39.42-.77.93-.88,1.51-.07.4-.1.81.02,1.21.16.49.44.87.88,1.15.32.21.8.25,1.16.15s.73-.36.9-.69c.18-.35.28-.77.15-1.16s-.35-.68-.69-.9h0Z"/>
    </g>
    <g>
      <path class="cls-13" d="m432.23,509.3l.51.49c.29.28.6.59.71,1.04s-.09,1.08-.48,1.18c-.18.05-.37-.03-.52-.14-.42-.28-.75-.74-.92-1.3-.07-.22-.11-.47-.07-.72.06-.3.26-.57.51-.63s.5.1.57.38"/>
      <path class="cls-13" d="m431.17,510.36c.31.3.64.58.91.92l-.23-.3c.1.13.18.26.24.4l-.15-.36c.04.1.07.21.09.32l-.05-.4c.01.11.01.22,0,.33l.05-.4c-.02.11-.04.22-.09.32l.15-.36c-.03.08-.07.14-.12.21l.23-.3c-.04.05-.08.1-.13.13l.3-.23s-.07.04-.1.06l.36-.15s-.07.02-.1.03l.4-.05s-.09,0-.14,0l.4.05c-.06-.01-.12-.03-.18-.05l.36.15c-.09-.05-.18-.1-.26-.16l.3.23c-.15-.12-.29-.25-.4-.41l.23.3c-.13-.18-.24-.36-.32-.56l.15.36c-.07-.18-.13-.36-.16-.55l.05.4c-.02-.12-.02-.24,0-.37l-.05.4c.01-.09.04-.17.07-.26l-.15.36c.03-.06.06-.12.11-.18l-.23.3c.04-.05.09-.1.14-.14l-.3.23s.08-.05.13-.08l-.36.15s.07-.02.1-.03l-.4.05s.09,0,.14,0l-.4-.05s.07.02.1.03l-.36-.15s.08.04.12.07l-.3-.23s.05.05.08.08l-.23-.3s.06.08.08.13l-.15-.36s.02.05.03.08c.11.37.36.7.69.9s.8.27,1.16.15.71-.34.9-.69.27-.76.15-1.16c-.11-.36-.27-.65-.54-.92-.35-.36-.82-.52-1.31-.56-.17-.01-.37.02-.54.05s-.34.11-.49.2c-.33.19-.59.46-.8.77-.63.96-.37,2.27.19,3.19.21.34.47.67.78.92s.57.43.97.57c.18.06.39.09.58.09s.41-.02.59-.08c.32-.11.63-.28.86-.53.27-.3.4-.55.55-.92.18-.48.17-.99.08-1.48-.18-.96-.96-1.63-1.62-2.27-.28-.27-.67-.44-1.06-.44-.37,0-.81.16-1.06.44s-.46.66-.44,1.06.15.78.44,1.06h0Z"/>
    </g>
  </g>
  <path class="cls-6" d="m398.98,476.51c-.07-29.53-9.36-58.96-26.24-83.19-3.67-5.27-7.71-10.31-12.47-14.62-6.66-6.02-14.57-10.45-22.4-14.82-5.77-3.22-11.53-6.44-17.3-9.67-.15-1.95-.3-3.89-.45-5.84,18.77.13,35.8-10.67,50.3-22.59,5.94-4.88,11.75-10.03,17.7-14.95.26-.53.53-1.07.8-1.61-.47-2.41.62-5.18,3.29-5.91.1-.17.2-.34.3-.51.23-.62.57-1.19,1.03-1.67,8.96-14.23,22.52-28.85,35.04-31.93-.13-2.64-1.01-5.35-.09-7.82.94-2.51,3.44-4,5.28-5.94,7.09-7.47,3.3-19.61-.87-29.03-6.38,1.39-13.36-3.93-13.69-10.46-.2-3.88,1.45-8.31-1-11.32-2.47-3.03-7.42-2.34-10.62-4.59-4.67-3.27-3.38-10.4-5.13-15.83-3.26-10.12-11.74-6.65-19.04-7.51-2.39-.28-18.74-2.45-19.21-4.28-2.44-9.59-17.5-12.46-23.3-4.45-1.36-9.05-11.78-14.41-20.88-13.5-9.11.91-17.06,6.3-24.55,11.56-5.04-8.55-20.67-6.27-23.06,3.36-11.59-7.21-29.02-1.79-34.48,10.72-1.5,3.43-4.27,8.18-7.54,6.36-.14-2.37-.27-4.74-.41-7.11-7.54,4.75-10.27,15.77-5.82,23.49-2.55,9.15-2.36,19.05.53,28.1-4.88.84-6.68,7.57-4.42,11.98,2.26,4.41,6.94,6.94,11.35,9.2-7.16,20.54-4.15,44.36,7.89,62.48,12.04,18.12,32.83,30.12,54.54,31.48,1.91,5.32-4.47,9.65-9.72,11.72-11.55,4.56-23.09,9.12-34.64,13.69-7.73,3.06-15.77,6.16-24.07,5.71-16.19-.88-29.64-17.62-27-33.62,1.31-7.94,5.34-17.61-.74-22.88-1.98,2.94-3.95,5.88-5.93,8.82-4.99-7.26-9.01-15.19-11.92-23.5-2.02,4.94-2.92,10.34-2.62,15.67-3.16-4.11-5.42-8.91-6.57-13.97-1.74,4.34-1.92,9.27-.6,13.75-2.61-4.51-7.26-7.86-12.43-8.65,3,5.47,5.99,10.95,8.99,16.42-3.08-3.86-6.16-7.72-9.25-11.58,7.27,15.32,14.55,30.64,21.82,45.96,5.11,10.76,10.56,21.94,20.07,29.1,15.83,11.9,37.84,9.32,57.39,6.19-.89,29.19-1.79,58.48-6.59,87.28-2.4,14.4-5.77,28.64-7.69,43.12-2.55,19.17-2.54,38.69.03,57.86,4.42-4.93,13.13-3.41,17.5,1.57,4.37,4.97,5.34,12.06,5.29,18.68-.1,12.23-3.19,24.7-10.4,34.58-7.21,9.88-18.87,16.85-31.11,16.78-1.72,3.32.27,7.96,3.85,9.02-2.55-.6-5.42,1.22-5.97,3.78,21.38,4.52,43.91,3.47,64.78-3.02-1.53.34-.99,2.99.53,3.38s3.01-.61,4.27-1.55c-4.17-14.09-8.39-28.58-7.16-43.22,1.02-12.2,5.8-24.12,4.68-36.3,6.24-.44,12.48-.88,18.72-1.31,2.06-.14,4.26-.26,6.07.75,2.15,1.2,3.2,3.69,3.9,6.05,3.15,10.68,2.05,22.09.92,33.17l-3.3,32.33c2.66.69,3.8,3.38,3.4,5.78,1.67.48,2.73,1.76,3.15,3.25,2.03.52,3.18,2.18,3.43,4.02,18.81.83,37.72-.64,56.17-4.4.28-3.28-2.92-6.08-6.08-6.2.05-.13.1-.27.11-.41.1-1.31-.93-2.42-1.94-3.26-7.92-6.57-19.44-8.52-25.71-16.68-11.22-14.61,2.28-35.7-.77-53.86,1.84,1.34,4.45.58,6.38-.61,1.93-1.19,3.72-2.81,5.96-3.18,1.08-.18,2.29.14,3.19.77,2.8-3.45,2.56-9.29,1.83-14.06-8.01-52.35-13.15-105.13-15.41-158.04,20.9,15.87,31.57,44.14,26.36,69.87-1.01,4.97-1.99,11.36,2.34,14,1.66-2.02,2.91-4.39,3.64-6.9,4.39,4.78,8.79,9.56,13.18,14.33,1.46,1.59,3.13,3.28,5.27,3.46,1.84.15,3.76-1.61,3.54-3.25,1.06,2.52,3.59,4.41,6.33,4.58-.31-2.63-.63-5.25-.94-7.88.81,3.33,4.28,5.79,7.7,5.44.55-3.46.11-7.05-1.2-10.3.98.76,2.23,1.15,3.45.9,2.85-11.34-7.93-23.84-19.57-22.69Z"/>
  <path class="cls-11" d="m360.09,588.97c-1.29,1.87,3.19,3.13,3.68.91.26-1.14-.36-2.16-1.32-2.83-.63.77-1.4,1.42-2.36,1.92Z"/>
  <path class="cls-3" d="m303.95,602.63c-5,1.02-10.11,2.19-15.18,1.54-3.71-.47-7.18-1.89-10.68-3.11-15.89-5.52-33.48-6.95-50.2-4.09,4.7-18.12,3.04-37.07,5.54-55.54,2.71-20.03,10.31-39.34,12.7-59.41,2.98-25-2.19-50.43,1.69-75.33.29-1.86.66-3.79,1.9-5.3,2.78-3.4,8.33-3.19,13-3.11,12.01.21,24.07-2.81,34.25-8.58,15.78-8.94,26.84-24.09,43.74-31.16,5.71.46,10.41,4.59,12.76,9.32s2.78,10.04,3.17,15.22c1.14,14.89,2.27,29.78,3.41,44.66.56,7.3,1.11,14.61.85,21.92-.25,7.13-1.28,14.21-1.55,21.34-.37,9.85.72,19.68,1.8,29.49,3.08,27.86,7.31,55.84,9.27,83.78,1.06,15.05-7.25,12.52-21.56,13.03-15.11.53-30.17,2.32-44.92,5.34Z"/>
  <line class="cls-1" x1="246.13" y1="477.66" x2="359.35" y2="467.02"/>
  <path class="cls-10" d="m259.99,663.97c7.3-.83,14.21-4.31,21.53-4.94,5.6-.48,14.01,2.25,12.62,10.29-1.35,7.84-11,7.78-16.42,8.51-10.69,1.45-21.57,1.87-32.34,1.59-15.18-.4-37.76-1.4-13.07-13.53-.84-2.41-.37-6.4-1.28-8.8,3.44-.12,7.33-.93,10.48-2.62,3.59,7.42,11.13,10.34,18.48,9.5Z"/>
  <path class="cls-10" d="m342.08,663.97c-7.64-.83-14.88-4.31-22.54-4.94-5.86-.48-14.66,2.25-13.21,10.29,1.41,7.84,11.52,7.78,17.19,8.51,11.19,1.45,22.58,1.87,33.84,1.59,15.89-.4,39.52-1.4,13.68-13.53.88-2.41.38-6.4,1.34-8.8-3.6-.12-7.67-.93-10.96-2.62-3.75,7.42-11.65,10.34-19.34,9.5Z"/>
  <path class="cls-7" d="m449.35,226.33c-3.08-4.06-7.8-6.42-12.45-8.36-4-6.75-6.63-14.35-7.68-22.17-.24-1.83-.45-3.77-1.56-5.22-.84-1.09-2.1-1.75-3.35-2.29-4.34-1.89-9.08-2.8-13.79-2.65.06-8.41-4.37-16.72-11.32-21.22s-16.19-5.04-23.6-1.39c2.62-3.72-.55-9.32-4.82-10.7s-8.88.09-13.12,1.55c-5.83-7.71-16.83-10.8-25.69-7.21-.44-2.45-.87-4.91-1.31-7.36-5.92,0-11.84,1.81-16.79,5.14,2.75-4.19-3.58-9.51-8.21-7.75-4.62,1.76-6.91,6.95-8.72,11.64-.65-5.56-6.31-9.95-11.71-9.09-5.02.79-8.9,5.96-8.62,11.09-.77-3.17-4.89-5.1-8.09-4.01-3.59,1.22-5.85,4.9-6.94,8.61-8.84-5.81-22.51,1.4-23.44,11.95-.16-3.27-4.05-5.85-7.3-4.97-3.57.96-5.83,4.78-6.22,8.54s.7,7.49,1.78,11.1c-5.36,3.97-5.9,11.91-4.95,18.61.95,6.7,2.85,13.69.6,20.06-1.78,5.04-5.72,11.4-1.65,14.78,2.21,1.84,5.7,1.08,7.78-.91,2.09-1.98,3.11-4.85,4-7.62,1.3-4.02,2.58-8.26,5.54-11.22,2.96-2.96,8.21-4.01,11.15-1.04.68-2.27,1.36-4.53,2.05-6.8,7.22,5.49,18.86,3.17,23.54-4.68,5.27,1.92,10.54,3.84,15.81,5.75,2.66.97,5.59,1.94,8.22.91,2.64-1.02,4.14-5.06,1.92-6.84,7.63,5.01,18.93,2.84,24.27-4.66.7,6.16,7.94,10.5,13.54,8.14.13,3.35,2.82,6.41,6.06,6.9,3.24.49,6.68-1.64,7.76-4.8.4,3.57.8,7.13,1.2,10.7,1.76.24,3.61-.79,4.37-2.42-.5,4.81,2.48,9.77,6.9,11.49s9.87.05,12.63-3.87c-.37,6.03,8,10.27,12.47,6.33,1.75,6.87,3.38,14.69-.4,20.64-1.28,2.02-3.1,3.64-4.36,5.67-4.66,7.47,1.47,19.11,10.13,19.24-.23,6.81,5.39,12,11.92,14.26,5.51-5.15,11.26-8.72,16.72-9.49.23-1.78.64-3.61,1.58-5.35,3.37-6.28,12.98-2.19,14.6-11.94.7-4.21-.9-8.54-3.39-11.95,2.18-5.63,10.14-6.11,13.82-10.85,3.13-4.02,2.19-10.21-.9-14.26Z"/>
  <path class="cls-8" d="m348.55,249.42l-7.96-1.82c-1.24-.28-2.54-.6-3.49-1.45s-1.38-2.42-.58-3.41c6.4-3.44,14.57-3.35,20.88.24s10.58,10.56,10.89,17.82c-2.15-.16-3.5-2.28-4.82-3.98-4.34-5.61-11.88-8.55-18.88-7.38"/>
  <path class="cls-8" d="m273.81,245.02l9.57-.2c1.49-.03,3.06-.08,4.31-.73s2.02-2.11,1.26-3.25c-6.86-4.68-16.37-6.23-24.34-3.97s-14.11,8.28-15.71,15.37c2.53.27,4.46-1.54,6.29-2.95,6.01-4.65,15.28-6.04,23.22-3.47"/>
  <ellipse class="cls-2" cx="347.62" cy="270.99" rx="16.21" ry="13.23"/>
  <ellipse class="cls-9" cx="345.09" cy="270.99" rx="11.38" ry="12.14"/>
  <circle class="cls-2" cx="350.87" cy="265.72" r="3.26"/>
  <ellipse class="cls-2" cx="272.69" cy="265.93" rx="16.4" ry="13.23"/>
  <ellipse class="cls-9" cx="275.24" cy="265.93" rx="11.51" ry="12.14"/>
  <ellipse class="cls-2" cx="269.39" cy="260.65" rx="3.3" ry="3.26"/>
  <path class="cls-5" d="m294.56,292.08c1.79,4.26,5.99,7.4,10.57,7.93s9.39-1.58,12.1-5.32c-7.97,2.3-17,.57-23.55-4.52.3,1.13.89,2.18,1.7,3.03"/>
  <path class="cls-4" d="m292.4,312.81c7.3,2.44,15.18,3.12,22.78,1.95-1.46,6.28-7.14,11.34-13.54,12.07-1.82.21-3.67.09-5.44-.36-5.36-1.36-9.46-5.58-13.25-9.62-8.54-9.08,4.36-5.74,9.45-4.04Z"/>
  <path class="cls-6" d="m389.3,306.81c.13.83.32,1.71.93,2.28.57.54,1.4.68,2.18.75,6.31.55,12.78-3.03,15.68-8.66,1.76-3.42,1.78-8.44-1.6-10.29-3.36-1.84-7.35.68-10.35,3.05"/>
  <path class="cls-6" d="m233.56,256.46c-.12,1.03-.29,2.13-.86,2.85-.53.67-1.3.85-2.02.94-5.85.68-11.85-3.77-14.54-10.79-1.63-4.26-1.65-10.52,1.48-12.82,3.11-2.29,6.81.85,9.6,3.8"/>
  <g>
    <path class="cls-12" d="m211.5,173.11h.27"/>
    <path class="cls-14" d="m229.68,240.34c-10.55-24.05-7.06-53.61,9.82-73.9,4.3-5.17,9.36-9.67,15.08-13.2,1.64-1.01.13-3.61-1.51-2.59-22.99,14.19-34.68,41.87-31.97,68.33.81,7.91,2.81,15.6,6,22.88.77,1.76,3.36.24,2.59-1.51h0Z"/>
    <g>
      <path class="cls-14" d="m257.02,173.05c-8.21,7.58-19.84,10.39-30.17,7.29"/>
      <path class="cls-14" d="m255.96,171.99c-7.7,7.02-18.66,9.85-28.71,6.91-1.86-.54-2.65,2.35-.8,2.89,11.1,3.25,23.15.05,31.63-7.68,1.43-1.3-.7-3.42-2.12-2.12h0Z"/>
    </g>
    <g>
      <path class="cls-14" d="m226.47,184.45c7.2-9.64,19.52-14.23,30.55-11.4"/>
      <path class="cls-14" d="m227.76,185.21c6.6-8.72,18.12-13.39,28.86-10.71,1.87.47,2.67-2.42.8-2.89-12.15-3.04-24.81,2.26-32.25,12.08-1.17,1.54,1.44,3.04,2.59,1.51h0Z"/>
    </g>
    <g>
      <path class="cls-14" d="m225.82,181.27c-1.92-13.94-3.5-29.53,4.01-40.94,1.77,13.88,1.76,28.02,0,41.9"/>
      <path class="cls-14" d="m227.26,180.87c-1.79-13.03-3.7-28.13,3.86-39.78l-2.8-.76c1.75,13.91,1.75,27.99,0,41.9-.24,1.91,2.76,1.89,3,0,1.76-13.91,1.76-27.99,0-41.9-.18-1.43-1.93-2.1-2.8-.76-8.03,12.38-6.06,28.26-4.17,42.09.11.81,1.14,1.23,1.85,1.05.87-.23,1.16-1.05,1.05-1.85h0Z"/>
    </g>
    <g>
      <path class="cls-14" d="m221.95,200.16c-5.49-1.11-9.91-6.02-12.01-11.71s-2.19-12.06-1.53-18.17c.06-.58.31-1.33.84-1.28.29.03.51.31.68.57,6.33,9.36,11.13,19.98,14.1,31.18"/>
      <path class="cls-14" d="m222.35,198.72c-8.55-1.85-12.2-11.4-12.71-19.2-.16-2.4-.1-4.82.09-7.22.04-.52.07-1.05.14-1.57,0,.04.13-.62.12-.65l-1.35.25.24.36c.15.48.68,1.03.96,1.46.31.49.63.98.93,1.47,2.47,3.98,4.65,8.13,6.54,12.42,2.16,4.89,3.9,9.96,5.28,15.12.5,1.86,3.39,1.07,2.89-.8-2.85-10.63-7.29-20.86-13.29-30.09-.6-.93-1.19-2.19-2.27-2.61-1.19-.46-2.25.27-2.71,1.35-.43,1-.4,2.22-.49,3.29-.11,1.43-.18,2.86-.18,4.29,0,5.39.88,10.95,3.52,15.72,2.44,4.41,6.45,8.21,11.49,9.3,1.88.41,2.69-2.48.8-2.89h0Z"/>
    </g>
    <g>
      <path class="cls-14" d="m251.04,196.6c-7.91,8.02-20.4,9.97-30.02,4.7"/>
      <path class="cls-14" d="m249.98,195.54c-7.35,7.34-18.97,9.43-28.2,4.46-1.7-.92-3.22,1.67-1.51,2.59,10.42,5.61,23.52,3.38,31.84-4.93,1.37-1.37-.75-3.49-2.12-2.12h0Z"/>
    </g>
    <g>
      <path class="cls-14" d="m224.17,202.86c8.06-5.13,17.61-7.35,26.87-6.27"/>
      <path class="cls-14" d="m224.93,204.16c7.8-4.9,16.94-7.09,26.11-6.06,1.92.21,1.9-2.79,0-3-9.64-1.08-19.43,1.32-27.63,6.47-1.63,1.03-.13,3.62,1.51,2.59h0Z"/>
    </g>
    <g>
      <path class="cls-14" d="m199.25,209.76c8.37,3.68,16.47,8.11,24.19,13.22"/>
      <path class="cls-14" d="m198.5,211.06c8.42,3.72,16.51,8.15,24.19,13.22,1.62,1.07,3.12-1.53,1.51-2.59-7.69-5.07-15.77-9.5-24.19-13.22-1.75-.77-3.28,1.81-1.51,2.59h0Z"/>
    </g>
    <g>
      <path class="cls-14" d="m246.25,216.41c-7.8,2.92-15.6,5.84-23.4,8.76"/>
      <path class="cls-14" d="m245.86,214.97c-7.8,2.92-15.6,5.84-23.4,8.76-1.79.67-1.02,3.57.8,2.89,7.8-2.92,15.6-5.84,23.4-8.76,1.79-.67,1.02-3.57-.8-2.89h0Z"/>
    </g>
    <g>
      <path class="cls-14" d="m222.48,224.04c1.35-4.8,5.76-7.93,10.24-8.8s9.08.11,13.53,1.17"/>
      <path class="cls-14" d="m223.92,224.44c1.07-3.59,4.08-6.23,7.6-7.34,4.68-1.48,9.7-.33,14.33.76,1.88.44,2.68-2.45.8-2.89-5.34-1.26-11.22-2.5-16.55-.55-4.27,1.57-7.75,4.81-9.07,9.22-.55,1.85,2.34,2.65,2.89.8h0Z"/>
    </g>
    <g>
      <path class="cls-14" d="m221.12,222.4c-4.03,2.33-9.16,1.09-12.88-1.8s-6.33-7.17-8.8-11.4"/>
      <path class="cls-14" d="m220.37,221.1c-3.75,2.07-8.33.67-11.48-1.89-3.53-2.88-5.88-6.88-8.15-10.76-.97-1.67-3.57-.16-2.59,1.51,2.63,4.51,5.45,9.13,9.75,12.24,4.02,2.91,9.5,3.97,13.98,1.49,1.69-.93.18-3.53-1.51-2.59h0Z"/>
    </g>
    <g>
      <path class="cls-14" d="m243.16,160.07c1.35-6.81,5.76-11.25,10.24-12.48s9.08.16,13.53,1.65"/>
      <path class="cls-14" d="m244.61,160.47c.87-4.2,3.06-8.26,6.87-10.45,4.71-2.71,10.29-.92,15.06.67,1.84.61,2.62-2.28.8-2.89-5.6-1.87-11.9-3.52-17.37-.37-4.46,2.57-7.22,7.31-8.25,12.25-.39,1.88,2.5,2.69,2.89.8h0Z"/>
    </g>
  </g>
  <g>
    <path class="cls-12" d="m427.55,212.32h-.24"/>
    <path class="cls-14" d="m414.24,286.64c4.94-14.01,6.48-29.29,4.86-44.04-1.53-13.87-5.92-27.58-13.67-39.26-3.87-5.83-8.55-11.06-14.11-15.33-1.53-1.18-3.03,1.43-1.51,2.59,9.77,7.5,16.69,18.47,21.01,29.87,5.02,13.27,6.71,27.67,5.54,41.78-.67,8.03-2.32,15.98-5.01,23.59-.64,1.82,2.25,2.61,2.89.8h0Z"/>
    <g>
      <path class="cls-14" d="m387.76,212.26c7.17,8.24,17.34,11.3,26.37,7.93"/>
      <path class="cls-14" d="m386.7,213.32c6.91,7.83,17.69,12,27.83,8.31,1.8-.65,1.02-3.55-.8-2.89-9.21,3.35-18.65-.44-24.91-7.54-1.28-1.45-3.4.68-2.12,2.12h0Z"/>
    </g>
    <g>
      <path class="cls-14" d="m414.47,224.65c-6.29-10.48-17.07-15.48-26.71-12.39"/>
      <path class="cls-14" d="m415.76,223.89c-5.85-9.6-16.96-16.63-28.4-13.08-1.84.57-1.05,3.47.8,2.89,10.15-3.15,19.85,3.22,25.01,11.7,1,1.65,3.6.14,2.59-1.51h0Z"/>
    </g>
    <g>
      <path class="cls-14" d="m415.03,221.19c1.68-15.16,3.06-32.1-3.51-44.51-1.54,15.09-1.54,30.47,0,45.55"/>
      <path class="cls-14" d="m416.53,221.19c1.64-14.82,3.46-31.53-3.71-45.27-.75-1.44-2.66-.6-2.8.76-1.53,15.14-1.53,30.41,0,45.55.19,1.9,3.2,1.92,3,0-1.54-15.14-1.54-30.41,0-45.55l-2.8.76c3.35,6.41,4.44,13.72,4.66,20.88.23,7.64-.51,15.28-1.35,22.87-.21,1.92,2.79,1.9,3,0h0Z"/>
    </g>
    <g>
      <path class="cls-14" d="m418.41,241.73c4.8-1.2,8.66-6.55,10.5-12.73,1.84-6.19,1.92-13.12,1.33-19.75-.06-.63-.27-1.44-.73-1.39-.26.03-.44.34-.6.62-5.53,10.18-9.73,21.72-12.33,33.91"/>
      <path class="cls-14" d="m418.81,243.18c4.48-1.21,7.7-5.06,9.7-9.08,2.48-5.01,3.38-10.66,3.54-16.21.08-2.92.02-5.9-.32-8.81-.12-1.06-.47-2.26-1.6-2.63-1.32-.44-2.16.64-2.71,1.64-2.66,4.85-4.89,9.96-6.82,15.13-2.28,6.11-4.08,12.38-5.45,18.75-.41,1.88,2.49,2.69,2.89.8,1.29-6.01,2.97-11.93,5.07-17.7,1.02-2.79,2.13-5.55,3.35-8.26.6-1.33,1.22-2.64,1.87-3.94.32-.65.65-1.29.98-1.93.16-.3.65-1.64.97-1.79l-1.16.15c-.36-.4-.49-.46-.4-.18.05.19.07.39.07.59.04.39.06.78.09,1.16.06.86.11,1.71.14,2.57.07,1.72.07,3.43,0,5.15-.13,3.31-.57,6.61-1.49,9.79-1.38,4.76-4.33,10.5-9.51,11.9-1.86.5-1.07,3.4.8,2.89h0Z"/>
    </g>
    <g>
      <path class="cls-14" d="m392.99,237.86c6.91,8.72,17.83,10.84,26.24,5.11"/>
      <path class="cls-14" d="m391.93,238.92c3.36,4.18,8.06,7.4,13.39,8.39s10.34-.15,14.67-3.05c1.6-1.07.1-3.67-1.51-2.59-3.74,2.5-8.24,3.59-12.69,2.68-4.75-.97-8.72-3.82-11.73-7.56-1.21-1.5-3.32.63-2.12,2.12h0Z"/>
    </g>
    <g>
      <path class="cls-14" d="m416.47,244.67c-7.05-5.57-15.4-8-23.49-6.81"/>
      <path class="cls-14" d="m417.53,243.61c-7.15-5.59-15.87-8.46-24.95-7.2-.81.11-1.23,1.14-1.05,1.85.23.87,1.05,1.16,1.85,1.05,7.89-1.1,15.82,1.58,22.03,6.43,1.5,1.18,3.64-.93,2.12-2.12h0Z"/>
    </g>
    <g>
      <path class="cls-14" d="m438.25,252.17c-7.31,4.01-14.39,8.82-21.15,14.37"/>
      <path class="cls-14" d="m437.5,250.87c-7.6,4.18-14.75,9.11-21.45,14.61-1.49,1.23.64,3.34,2.12,2.12,6.5-5.34,13.47-10.09,20.84-14.14,1.69-.93.18-3.52-1.51-2.59h0Z"/>
    </g>
    <g>
      <path class="cls-14" d="m397.17,259.4c6.82,3.17,13.63,6.35,20.45,9.52"/>
      <path class="cls-14" d="m396.41,260.69c6.82,3.17,13.63,6.35,20.45,9.52,1.74.81,3.26-1.78,1.51-2.59-6.82-3.17-13.63-6.35-20.45-9.52-1.74-.81-3.26,1.78-1.51,2.59h0Z"/>
    </g>
    <g>
      <path class="cls-14" d="m417.95,267.69c-1.18-5.21-5.03-8.62-8.95-9.56s-7.94.12-11.83,1.27"/>
      <path class="cls-14" d="m419.4,267.3c-.99-4.14-3.69-7.89-7.58-9.73-4.83-2.29-10.16-1.05-15.05.39-1.85.54-1.06,3.44.8,2.89,4.02-1.18,8.7-2.55,12.74-.69,3.25,1.5,5.39,4.51,6.2,7.94.45,1.88,3.34,1.08,2.89-.8h0Z"/>
    </g>
    <g>
      <path class="cls-14" d="m419.14,265.91c3.53,2.53,8.01,1.19,11.26-1.95s5.54-7.8,7.69-12.39"/>
      <path class="cls-14" d="m418.38,267.2c4.14,2.85,9.27,1.26,12.74-1.87,3.83-3.47,6.11-8.42,8.26-13.01.82-1.74-1.77-3.26-2.59-1.51-1.89,4.03-3.82,8.29-6.92,11.55-2.59,2.72-6.54,4.63-9.98,2.26-1.59-1.1-3.09,1.5-1.51,2.59h0Z"/>
    </g>
    <g>
      <path class="cls-14" d="m399.87,198.14c-1.18-7.4-5.03-12.23-8.95-13.57s-7.94.17-11.83,1.8"/>
      <path class="cls-14" d="m401.32,197.75c-.8-4.82-2.86-9.82-6.83-12.89-4.83-3.73-10.66-2.07-15.8.07-.75.31-1.27.99-1.05,1.85.19.71,1.1,1.36,1.85,1.05,4.2-1.74,9.3-3.71,13.3-.5,3.37,2.7,4.95,7.1,5.64,11.23.32,1.9,3.21,1.09,2.89-.8h0Z"/>
    </g>
  </g>
</svg>